<svg xmlns="http://www.w3.org/2000/svg" viewBox="0 0 1000 300" width="1000" height="300">
<defs>
<radialGradient id="spaceGrad" cx="50%" cy="50%" r="70%">
  <stop offset="0%" stop-color="#0c1445"/>
  <stop offset="100%" stop-color="#020209"/>
</radialGradient>
<radialGradient id="nebula1" cx="50%" cy="50%" r="50%">
  <stop offset="0%" stop-color="#7c3aed" stop-opacity="0.25"/>
  <stop offset="100%" stop-color="#7c3aed" stop-opacity="0"/>
</radialGradient>
<radialGradient id="nebula2" cx="50%" cy="50%" r="50%">
  <stop offset="0%" stop-color="#0ea5e9" stop-opacity="0.2"/>
  <stop offset="100%" stop-color="#0ea5e9" stop-opacity="0"/>
</radialGradient>
<radialGradient id="nebula3" cx="50%" cy="50%" r="50%">
  <stop offset="0%" stop-color="#ec4899" stop-opacity="0.15"/>
  <stop offset="100%" stop-color="#ec4899" stop-opacity="0"/>
</radialGradient>
<filter id="starGlow">
  <feGaussianBlur stdDeviation="2.5" result="blur"/>
  <feMerge><feMergeNode in="blur"/><feMergeNode in="SourceGraphic"/></feMerge>
</filter>
</defs>
<rect width="1000" height="300" fill="url(#spaceGrad)"/>
<ellipse cx="200" cy="120" rx="180" ry="100" fill="url(#nebula1)"/>
<ellipse cx="700" cy="200" rx="220" ry="110" fill="url(#nebula2)"/>
<ellipse cx="500" cy="80" rx="160" ry="80" fill="url(#nebula3)"/>
<circle cx="683" cy="157" r="0.3" fill="white" opacity="0.36"/>
<circle cx="613" cy="28" r="0.3" fill="white" opacity="0.32"/>
<circle cx="216" cy="70" r="0.8" fill="white" opacity="0.32"/>
<circle cx="122" cy="3" r="0.6" fill="white" opacity="0.37"/>
<circle cx="132" cy="194" r="0.7" fill="white" opacity="0.29"/>
<circle cx="572" cy="181" r="0.4" fill="white" opacity="0.54"/>
<circle cx="43" cy="223" r="0.3" fill="white" opacity="0.57"/>
<circle cx="882" cy="160" r="0.7" fill="white" opacity="0.43"/>
<circle cx="726" cy="213" r="0.5" fill="white" opacity="0.36"/>
<circle cx="989" cy="166" r="0.4" fill="white" opacity="0.58"/>
<circle cx="471" cy="185" r="0.4" fill="white" opacity="0.54"/>
<circle cx="249" cy="223" r="0.7" fill="white" opacity="0.41"/>
<circle cx="405" cy="158" r="0.8" fill="white" opacity="0.29"/>
<circle cx="797" cy="86" r="0.4" fill="white" opacity="0.45"/>
<circle cx="543" cy="261" r="0.4" fill="white" opacity="0.51"/>
<circle cx="359" cy="75" r="0.5" fill="white" opacity="0.26"/>
<circle cx="202" cy="88" r="0.7" fill="white" opacity="0.50"/>
<circle cx="671" cy="38" r="0.4" fill="white" opacity="0.51"/>
<circle cx="505" cy="237" r="0.8" fill="white" opacity="0.50"/>
<circle cx="459" cy="289" r="0.8" fill="white" opacity="0.59"/>
<circle cx="330" cy="161" r="0.4" fill="white" opacity="0.23"/>
<circle cx="452" cy="155" r="0.9" fill="white" opacity="0.44"/>
<circle cx="360" cy="259" r="0.4" fill="white" opacity="0.38"/>
<circle cx="38" cy="29" r="0.6" fill="white" opacity="0.31"/>
<circle cx="660" cy="46" r="0.7" fill="white" opacity="0.40"/>
<circle cx="473" cy="297" r="0.7" fill="white" opacity="0.52"/>
<circle cx="917" cy="21" r="0.6" fill="white" opacity="0.52"/>
<circle cx="667" cy="96" r="0.5" fill="white" opacity="0.39"/>
<circle cx="154" cy="31" r="0.6" fill="white" opacity="0.52"/>
<circle cx="857" cy="175" r="1.0" fill="white" opacity="0.23"/>
<circle cx="661" cy="88" r="0.3" fill="white" opacity="0.48"/>
<circle cx="449" cy="268" r="0.7" fill="white" opacity="0.26"/>
<circle cx="381" cy="144" r="0.6" fill="white" opacity="0.51"/>
<circle cx="695" cy="26" r="0.9" fill="white" opacity="0.46"/>
<circle cx="67" cy="168" r="0.4" fill="white" opacity="0.47"/>
<circle cx="290" cy="129" r="0.8" fill="white" opacity="0.46"/>
<circle cx="928" cy="76" r="0.5" fill="white" opacity="0.43"/>
<circle cx="144" cy="179" r="0.5" fill="white" opacity="0.46"/>
<circle cx="678" cy="200" r="0.4" fill="white" opacity="0.48"/>
<circle cx="86" cy="158" r="0.7" fill="white" opacity="0.46"/>
<circle cx="336" cy="65" r="0.8" fill="white" opacity="0.53"/>
<circle cx="756" cy="269" r="0.4" fill="white" opacity="0.47"/>
<circle cx="520" cy="185" r="0.3" fill="white" opacity="0.32"/>
<circle cx="973" cy="109" r="0.5" fill="white" opacity="0.51"/>
<circle cx="196" cy="115" r="1.0" fill="white" opacity="0.26"/>
<circle cx="302" cy="51" r="0.7" fill="white" opacity="0.42"/>
<circle cx="756" cy="269" r="0.3" fill="white" opacity="0.33"/>
<circle cx="784" cy="67" r="0.7" fill="white" opacity="0.26"/>
<circle cx="185" cy="84" r="0.8" fill="white" opacity="0.22"/>
<circle cx="373" cy="121" r="1.0" fill="white" opacity="0.44"/>
<circle cx="770" cy="229" r="0.5" fill="white" opacity="0.30"/>
<circle cx="988" cy="240" r="0.9" fill="white" opacity="0.28"/>
<circle cx="694" cy="292" r="1.0" fill="white" opacity="0.38"/>
<circle cx="288" cy="195" r="0.7" fill="white" opacity="0.37"/>
<circle cx="165" cy="102" r="0.9" fill="white" opacity="0.26"/>
<circle cx="256" cy="26" r="0.7" fill="white" opacity="0.55"/>
<circle cx="567" cy="52" r="0.8" fill="white" opacity="0.41"/>
<circle cx="127" cy="145" r="0.4" fill="white" opacity="0.26"/>
<circle cx="460" cy="262" r="0.4" fill="white" opacity="0.37"/>
<circle cx="969" cy="113" r="0.9" fill="white" opacity="0.55"/>
<circle cx="952" cy="13" r="0.6" fill="white" opacity="0.36"/>
<circle cx="382" cy="120" r="0.6" fill="white" opacity="0.23"/>
<circle cx="229" cy="14" r="0.5" fill="white" opacity="0.24"/>
<circle cx="731" cy="171" r="0.9" fill="white" opacity="0.26"/>
<circle cx="293" cy="241" r="0.8" fill="white" opacity="0.26"/>
<circle cx="722" cy="240" r="0.6" fill="white" opacity="0.20"/>
<circle cx="81" cy="9" r="0.5" fill="white" opacity="0.53"/>
<circle cx="561" cy="270" r="0.6" fill="white" opacity="0.51"/>
<circle cx="243" cy="154" r="0.4" fill="white" opacity="0.30"/>
<circle cx="654" cy="234" r="0.3" fill="white" opacity="0.53"/>
<circle cx="511" cy="274" r="0.3" fill="white" opacity="0.41"/>
<circle cx="247" cy="73" r="0.5" fill="white" opacity="0.20"/>
<circle cx="361" cy="123" r="0.7" fill="white" opacity="0.27"/>
<circle cx="684" cy="43" r="0.7" fill="white" opacity="0.34"/>
<circle cx="976" cy="269" r="0.7" fill="white" opacity="0.51"/>
<circle cx="519" cy="283" r="0.3" fill="white" opacity="0.55"/>
<circle cx="44" cy="198" r="1.0" fill="white" opacity="0.30"/>
<circle cx="16" cy="182" r="0.9" fill="white" opacity="0.34"/>
<circle cx="750" cy="53" r="0.8" fill="white" opacity="0.49"/>
<circle cx="340" cy="68" r="0.3" fill="white" opacity="0.42"/>
<circle cx="833" cy="89" r="0.9" fill="white" opacity="0.47"/>
<circle cx="712" cy="245" r="0.7" fill="white" opacity="0.52"/>
<circle cx="64" cy="234" r="0.3" fill="white" opacity="0.28"/>
<circle cx="810" cy="102" r="0.9" fill="white" opacity="0.33"/>
<circle cx="317" cy="263" r="0.6" fill="white" opacity="0.53"/>
<circle cx="484" cy="129" r="0.3" fill="white" opacity="0.46"/>
<circle cx="292" cy="182" r="0.9" fill="white" opacity="0.22"/>
<circle cx="671" cy="169" r="0.5" fill="white" opacity="0.52"/>
<circle cx="447" cy="204" r="0.8" fill="white" opacity="0.56"/>
<circle cx="395" cy="173" r="1.0" fill="white" opacity="0.40"/>
<circle cx="509" cy="188" r="0.9" fill="white" opacity="0.41"/>
<circle cx="820" cy="42" r="0.8" fill="white" opacity="0.23"/>
<circle cx="616" cy="92" r="0.7" fill="white" opacity="0.33"/>
<circle cx="81" cy="167" r="0.8" fill="white" opacity="0.32"/>
<circle cx="617" cy="218" r="0.4" fill="white" opacity="0.38"/>
<circle cx="457" cy="21" r="0.8" fill="white" opacity="0.56"/>
<circle cx="629" cy="222" r="0.5" fill="white" opacity="0.59"/>
<circle cx="970" cy="29" r="0.4" fill="white" opacity="0.46"/>
<circle cx="372" cy="262" r="0.9" fill="white" opacity="0.47"/>
<circle cx="975" cy="15" r="0.4" fill="white" opacity="0.44"/>
<circle cx="800" cy="224" r="0.3" fill="white" opacity="0.23"/>
<circle cx="797" cy="187" r="0.6" fill="white" opacity="0.58"/>
<circle cx="33" cy="78" r="0.8" fill="white" opacity="0.58"/>
<circle cx="380" cy="227" r="0.8" fill="white" opacity="0.43"/>
<circle cx="542" cy="187" r="0.6" fill="white" opacity="0.46"/>
<circle cx="255" cy="58" r="0.3" fill="white" opacity="0.27"/>
<circle cx="530" cy="198" r="0.9" fill="white" opacity="0.25"/>
<circle cx="793" cy="133" r="0.8" fill="white" opacity="0.29"/>
<circle cx="626" cy="146" r="0.8" fill="white" opacity="0.60"/>
<circle cx="204" cy="62" r="0.4" fill="white" opacity="0.23"/>
<circle cx="176" cy="227" r="1.0" fill="white" opacity="0.52"/>
<circle cx="990" cy="163" r="0.8" fill="white" opacity="0.48"/>
<circle cx="563" cy="277" r="0.5" fill="white" opacity="0.32"/>
<circle cx="161" cy="89" r="0.9" fill="white" opacity="0.40"/>
<circle cx="124" cy="102" r="0.9" fill="white" opacity="0.29"/>
<circle cx="505" cy="13" r="0.6" fill="white" opacity="0.43"/>
<circle cx="478" cy="282" r="0.4" fill="white" opacity="0.55"/>
<circle cx="67" cy="158" r="0.6" fill="white" opacity="0.49"/>
<circle cx="490" cy="269" r="0.6" fill="white" opacity="0.36"/>
<circle cx="588" cy="37" r="0.4" fill="white" opacity="0.33"/>
<line x1="374.8" y1="112.6" x2="372.9" y2="150.3" stroke="#a5b4fc" stroke-width="0.7" opacity="0.11"/>
<line x1="571.3" y1="28.9" x2="593.4" y2="29.7" stroke="#a5b4fc" stroke-width="0.7" opacity="0.23"/>
<line x1="593.4" y1="29.7" x2="591.9" y2="72.4" stroke="#a5b4fc" stroke-width="0.7" opacity="0.07"/>
<line x1="733.4" y1="69.4" x2="732.1" y2="112.7" stroke="#a5b4fc" stroke-width="0.7" opacity="0.06"/>
<line x1="733.4" y1="69.4" x2="755.0" y2="67.9" stroke="#a5b4fc" stroke-width="0.7" opacity="0.23"/>
<line x1="733.4" y1="69.4" x2="752.4" y2="107.6" stroke="#a5b4fc" stroke-width="0.7" opacity="0.07"/>
<line x1="732.1" y1="112.7" x2="752.4" y2="107.6" stroke="#a5b4fc" stroke-width="0.7" opacity="0.24"/>
<line x1="732.1" y1="112.7" x2="753.0" y2="149.4" stroke="#a5b4fc" stroke-width="0.7" opacity="0.07"/>
<line x1="756.6" y1="29.5" x2="755.0" y2="67.9" stroke="#a5b4fc" stroke-width="0.7" opacity="0.10"/>
<line x1="755.0" y1="67.9" x2="752.4" y2="107.6" stroke="#a5b4fc" stroke-width="0.7" opacity="0.09"/>
<line x1="752.4" y1="107.6" x2="753.0" y2="149.4" stroke="#a5b4fc" stroke-width="0.7" opacity="0.07"/>
<line x1="863.3" y1="188.3" x2="861.2" y2="228.4" stroke="#a5b4fc" stroke-width="0.7" opacity="0.09"/>
<line x1="863.3" y1="188.3" x2="882.3" y2="187.6" stroke="#a5b4fc" stroke-width="0.7" opacity="0.25"/>
<line x1="863.3" y1="188.3" x2="899.5" y2="192.8" stroke="#a5b4fc" stroke-width="0.7" opacity="0.12"/>
<line x1="861.2" y1="228.4" x2="876.4" y2="231.4" stroke="#a5b4fc" stroke-width="0.7" opacity="0.28"/>
<line x1="861.2" y1="228.4" x2="898.5" y2="229.1" stroke="#a5b4fc" stroke-width="0.7" opacity="0.11"/>
<line x1="878.9" y1="27.6" x2="879.0" y2="71.0" stroke="#a5b4fc" stroke-width="0.7" opacity="0.06"/>
<line x1="878.9" y1="27.6" x2="917.0" y2="28.3" stroke="#a5b4fc" stroke-width="0.7" opacity="0.10"/>
<line x1="879.0" y1="71.0" x2="912.6" y2="72.1" stroke="#a5b4fc" stroke-width="0.7" opacity="0.14"/>
<line x1="883.0" y1="147.4" x2="882.3" y2="187.6" stroke="#a5b4fc" stroke-width="0.7" opacity="0.09"/>
<line x1="883.0" y1="147.4" x2="899.7" y2="152.2" stroke="#a5b4fc" stroke-width="0.7" opacity="0.26"/>
<line x1="883.0" y1="147.4" x2="916.4" y2="151.8" stroke="#a5b4fc" stroke-width="0.7" opacity="0.14"/>
<line x1="882.3" y1="187.6" x2="876.4" y2="231.4" stroke="#a5b4fc" stroke-width="0.7" opacity="0.06"/>
<line x1="882.3" y1="187.6" x2="899.7" y2="152.2" stroke="#a5b4fc" stroke-width="0.7" opacity="0.09"/>
<line x1="882.3" y1="187.6" x2="899.5" y2="192.8" stroke="#a5b4fc" stroke-width="0.7" opacity="0.26"/>
<line x1="882.3" y1="187.6" x2="898.5" y2="229.1" stroke="#a5b4fc" stroke-width="0.7" opacity="0.05"/>
<line x1="882.3" y1="187.6" x2="918.5" y2="192.8" stroke="#a5b4fc" stroke-width="0.7" opacity="0.11"/>
<line x1="876.4" y1="231.4" x2="882.1" y2="270.3" stroke="#a5b4fc" stroke-width="0.7" opacity="0.09"/>
<line x1="876.4" y1="231.4" x2="899.5" y2="192.8" stroke="#a5b4fc" stroke-width="0.7" opacity="0.05"/>
<line x1="876.4" y1="231.4" x2="898.5" y2="229.1" stroke="#a5b4fc" stroke-width="0.7" opacity="0.23"/>
<line x1="876.4" y1="231.4" x2="898.3" y2="268.3" stroke="#a5b4fc" stroke-width="0.7" opacity="0.07"/>
<line x1="882.1" y1="270.3" x2="898.5" y2="229.1" stroke="#a5b4fc" stroke-width="0.7" opacity="0.05"/>
<line x1="882.1" y1="270.3" x2="898.3" y2="268.3" stroke="#a5b4fc" stroke-width="0.7" opacity="0.27"/>
<line x1="899.7" y1="152.2" x2="899.5" y2="192.8" stroke="#a5b4fc" stroke-width="0.7" opacity="0.08"/>
<line x1="899.7" y1="152.2" x2="914.7" y2="111.6" stroke="#a5b4fc" stroke-width="0.7" opacity="0.06"/>
<line x1="899.7" y1="152.2" x2="916.4" y2="151.8" stroke="#a5b4fc" stroke-width="0.7" opacity="0.27"/>
<line x1="899.7" y1="152.2" x2="918.5" y2="192.8" stroke="#a5b4fc" stroke-width="0.7" opacity="0.05"/>
<line x1="899.5" y1="192.8" x2="898.5" y2="229.1" stroke="#a5b4fc" stroke-width="0.7" opacity="0.12"/>
<line x1="899.5" y1="192.8" x2="916.4" y2="151.8" stroke="#a5b4fc" stroke-width="0.7" opacity="0.06"/>
<line x1="899.5" y1="192.8" x2="918.5" y2="192.8" stroke="#a5b4fc" stroke-width="0.7" opacity="0.25"/>
<line x1="899.5" y1="192.8" x2="936.8" y2="190.4" stroke="#a5b4fc" stroke-width="0.7" opacity="0.11"/>
<line x1="898.5" y1="229.1" x2="898.3" y2="268.3" stroke="#a5b4fc" stroke-width="0.7" opacity="0.10"/>
<line x1="898.5" y1="229.1" x2="918.5" y2="192.8" stroke="#a5b4fc" stroke-width="0.7" opacity="0.08"/>
<line x1="898.5" y1="229.1" x2="933.1" y2="227.9" stroke="#a5b4fc" stroke-width="0.7" opacity="0.13"/>
<line x1="917.0" y1="28.3" x2="912.6" y2="72.1" stroke="#a5b4fc" stroke-width="0.7" opacity="0.06"/>
<line x1="912.6" y1="72.1" x2="914.7" y2="111.6" stroke="#a5b4fc" stroke-width="0.7" opacity="0.09"/>
<line x1="912.6" y1="72.1" x2="935.5" y2="108.9" stroke="#a5b4fc" stroke-width="0.7" opacity="0.06"/>
<line x1="914.7" y1="111.6" x2="916.4" y2="151.8" stroke="#a5b4fc" stroke-width="0.7" opacity="0.09"/>
<line x1="914.7" y1="111.6" x2="935.5" y2="108.9" stroke="#a5b4fc" stroke-width="0.7" opacity="0.24"/>
<line x1="914.7" y1="111.6" x2="950.9" y2="111.3" stroke="#a5b4fc" stroke-width="0.7" opacity="0.12"/>
<line x1="916.4" y1="151.8" x2="918.5" y2="192.8" stroke="#a5b4fc" stroke-width="0.7" opacity="0.08"/>
<line x1="916.4" y1="151.8" x2="936.8" y2="190.4" stroke="#a5b4fc" stroke-width="0.7" opacity="0.06"/>
<line x1="918.5" y1="192.8" x2="936.8" y2="190.4" stroke="#a5b4fc" stroke-width="0.7" opacity="0.26"/>
<line x1="918.5" y1="192.8" x2="933.1" y2="227.9" stroke="#a5b4fc" stroke-width="0.7" opacity="0.11"/>
<line x1="935.5" y1="108.9" x2="950.9" y2="111.3" stroke="#a5b4fc" stroke-width="0.7" opacity="0.28"/>
<line x1="935.5" y1="108.9" x2="972.0" y2="107.7" stroke="#a5b4fc" stroke-width="0.7" opacity="0.12"/>
<line x1="936.8" y1="190.4" x2="933.1" y2="227.9" stroke="#a5b4fc" stroke-width="0.7" opacity="0.11"/>
<line x1="936.8" y1="190.4" x2="949.2" y2="230.7" stroke="#a5b4fc" stroke-width="0.7" opacity="0.07"/>
<line x1="933.1" y1="227.9" x2="949.2" y2="230.7" stroke="#a5b4fc" stroke-width="0.7" opacity="0.27"/>
<line x1="950.9" y1="111.3" x2="972.0" y2="107.7" stroke="#a5b4fc" stroke-width="0.7" opacity="0.23"/>
<circle cx="31.2" cy="27.0" r="0.8" fill="#334155" opacity="0.5"/>
<circle cx="32.0" cy="71.6" r="0.8" fill="#334155" opacity="0.5"/>
<circle cx="26.9" cy="109.6" r="0.8" fill="#334155" opacity="0.5"/>
<circle cx="27.4" cy="152.7" r="0.8" fill="#334155" opacity="0.5"/>
<circle cx="30.1" cy="187.3" r="0.8" fill="#334155" opacity="0.5"/>
<circle cx="28.0" cy="232.1" r="0.8" fill="#334155" opacity="0.5"/>
<circle cx="29.7" cy="271.8" r="0.8" fill="#334155" opacity="0.5"/>
<circle cx="49.4" cy="32.9" r="0.8" fill="#334155" opacity="0.5"/>
<circle cx="48.8" cy="72.7" r="0.8" fill="#334155" opacity="0.5"/>
<circle cx="51.2" cy="110.7" r="0.8" fill="#334155" opacity="0.5"/>
<circle cx="49.8" cy="150.0" r="0.8" fill="#334155" opacity="0.5"/>
<circle cx="50.7" cy="190.3" r="0.8" fill="#334155" opacity="0.5"/>
<circle cx="51.3" cy="231.5" r="0.8" fill="#334155" opacity="0.5"/>
<circle cx="47.9" cy="268.6" r="0.8" fill="#334155" opacity="0.5"/>
<circle cx="64.1" cy="30.8" r="0.8" fill="#334155" opacity="0.5"/>
<circle cx="68.3" cy="70.1" r="0.8" fill="#334155" opacity="0.5"/>
<circle cx="67.2" cy="108.6" r="0.8" fill="#334155" opacity="0.5"/>
<circle cx="62.8" cy="148.7" r="0.8" fill="#334155" opacity="0.5"/>
<circle cx="64.3" cy="188.9" r="0.8" fill="#334155" opacity="0.5"/>
<circle cx="66.5" cy="227.8" r="0.8" fill="#334155" opacity="0.5"/>
<circle cx="64.0" cy="271.2" r="0.8" fill="#334155" opacity="0.5"/>
<circle cx="85.9" cy="27.4" r="0.8" fill="#334155" opacity="0.5"/>
<circle cx="83.5" cy="70.3" r="0.8" fill="#334155" opacity="0.5"/>
<circle cx="83.6" cy="108.2" r="0.8" fill="#334155" opacity="0.5"/>
<circle cx="83.6" cy="152.4" r="0.8" fill="#334155" opacity="0.5"/>
<circle cx="84.9" cy="191.2" r="0.8" fill="#334155" opacity="0.5"/>
<circle cx="87.1" cy="231.6" r="0.8" fill="#334155" opacity="0.5"/>
<circle cx="83.3" cy="267.0" r="0.8" fill="#334155" opacity="0.5"/>
<circle cx="101.1" cy="31.5" r="0.8" fill="#334155" opacity="0.5"/>
<circle cx="105.1" cy="72.7" r="0.8" fill="#334155" opacity="0.5"/>
<circle cx="101.7" cy="111.5" r="0.8" fill="#334155" opacity="0.5"/>
<circle cx="102.7" cy="150.6" r="0.8" fill="#334155" opacity="0.5"/>
<circle cx="100.1" cy="188.3" r="0.8" fill="#334155" opacity="0.5"/>
<circle cx="101.8" cy="227.2" r="0.8" fill="#334155" opacity="0.5"/>
<circle cx="101.0" cy="271.1" r="0.8" fill="#334155" opacity="0.5"/>
<circle cx="119.6" cy="28.0" r="0.8" fill="#334155" opacity="0.5"/>
<circle cx="120.1" cy="67.8" r="0.8" fill="#334155" opacity="0.5"/>
<circle cx="121.4" cy="107.2" r="0.8" fill="#334155" opacity="0.5"/>
<circle cx="119.5" cy="150.4" r="0.8" fill="#334155" opacity="0.5"/>
<circle cx="116.6" cy="190.9" r="0.8" fill="#334155" opacity="0.5"/>
<circle cx="117.5" cy="229.8" r="0.8" fill="#334155" opacity="0.5"/>
<circle cx="116.8" cy="269.3" r="0.8" fill="#334155" opacity="0.5"/>
<circle cx="136.2" cy="29.0" r="0.8" fill="#334155" opacity="0.5"/>
<circle cx="140.6" cy="69.3" r="0.8" fill="#334155" opacity="0.5"/>
<circle cx="140.5" cy="112.0" r="0.8" fill="#334155" opacity="0.5"/>
<circle cx="136.5" cy="147.5" r="0.8" fill="#334155" opacity="0.5"/>
<circle cx="134.6" cy="190.2" r="0.8" fill="#334155" opacity="0.5"/>
<circle cx="142.5" cy="229.1" r="0.8" fill="#334155" opacity="0.5"/>
<circle cx="139.7" cy="271.7" r="0.8" fill="#334155" opacity="0.5"/>
<circle cx="157.8" cy="31.5" r="0.8" fill="#334155" opacity="0.5"/>
<circle cx="160.1" cy="68.2" r="0.8" fill="#334155" opacity="0.5"/>
<circle cx="152.7" cy="107.9" r="0.8" fill="#334155" opacity="0.5"/>
<circle cx="153.5" cy="151.0" r="0.8" fill="#334155" opacity="0.5"/>
<circle cx="157.1" cy="188.3" r="0.8" fill="#334155" opacity="0.5"/>
<circle cx="158.1" cy="231.6" r="0.8" fill="#334155" opacity="0.5"/>
<circle cx="153.9" cy="270.6" r="0.8" fill="#334155" opacity="0.5"/>
<circle cx="176.6" cy="27.7" r="0.8" fill="#334155" opacity="0.5"/>
<circle cx="177.2" cy="72.8" r="0.8" fill="#334155" opacity="0.5"/>
<circle cx="171.5" cy="107.2" r="0.8" fill="#334155" opacity="0.5"/>
<circle cx="173.1" cy="151.1" r="0.8" fill="#334155" opacity="0.5"/>
<circle cx="178.3" cy="189.4" r="0.8" fill="#334155" opacity="0.5"/>
<circle cx="176.3" cy="227.5" r="0.8" fill="#334155" opacity="0.5"/>
<circle cx="176.1" cy="270.8" r="0.8" fill="#334155" opacity="0.5"/>
<circle cx="189.5" cy="31.6" r="0.8" fill="#334155" opacity="0.5"/>
<circle cx="195.5" cy="70.6" r="0.8" fill="#334155" opacity="0.5"/>
<circle cx="189.7" cy="112.9" r="0.8" fill="#334155" opacity="0.5"/>
<circle cx="195.0" cy="149.1" r="0.8" fill="#334155" opacity="0.5"/>
<circle cx="192.1" cy="189.2" r="0.8" fill="#334155" opacity="0.5"/>
<circle cx="192.7" cy="229.0" r="0.8" fill="#334155" opacity="0.5"/>
<circle cx="195.5" cy="271.9" r="0.8" fill="#334155" opacity="0.5"/>
<circle cx="207.6" cy="32.8" r="0.8" fill="#334155" opacity="0.5"/>
<circle cx="211.9" cy="72.0" r="0.8" fill="#334155" opacity="0.5"/>
<circle cx="212.4" cy="109.6" r="0.8" fill="#334155" opacity="0.5"/>
<circle cx="212.6" cy="152.8" r="0.8" fill="#334155" opacity="0.5"/>
<circle cx="208.9" cy="191.8" r="0.8" fill="#334155" opacity="0.5"/>
<circle cx="211.1" cy="229.9" r="0.8" fill="#334155" opacity="0.5"/>
<circle cx="210.3" cy="271.4" r="0.8" fill="#334155" opacity="0.5"/>
<circle cx="227.0" cy="32.1" r="0.8" fill="#334155" opacity="0.5"/>
<circle cx="231.5" cy="67.5" r="0.8" fill="#334155" opacity="0.5"/>
<circle cx="231.9" cy="108.5" r="0.8" fill="#334155" opacity="0.5"/>
<circle cx="228.6" cy="150.7" r="0.8" fill="#334155" opacity="0.5"/>
<circle cx="227.9" cy="187.2" r="0.8" fill="#334155" opacity="0.5"/>
<circle cx="231.7" cy="228.1" r="0.8" fill="#334155" opacity="0.5"/>
<circle cx="226.5" cy="271.8" r="0.8" fill="#334155" opacity="0.5"/>
<circle cx="245.6" cy="32.3" r="0.8" fill="#334155" opacity="0.5"/>
<circle cx="248.5" cy="68.7" r="0.8" fill="#334155" opacity="0.5"/>
<circle cx="243.0" cy="112.7" r="0.8" fill="#334155" opacity="0.5"/>
<circle cx="243.6" cy="151.3" r="0.8" fill="#334155" opacity="0.5"/>
<circle cx="246.8" cy="191.5" r="0.8" fill="#334155" opacity="0.5"/>
<circle cx="248.4" cy="230.9" r="0.8" fill="#334155" opacity="0.5"/>
<circle cx="246.8" cy="271.8" r="1.0" fill="white" filter="url(#starGlow)" opacity="0.95"/>
<circle cx="261.7" cy="28.3" r="0.8" fill="#334155" opacity="0.5"/>
<circle cx="266.5" cy="68.8" r="1.0" fill="#93c5fd" opacity="0.7"/>
<circle cx="265.7" cy="109.8" r="0.8" fill="#334155" opacity="0.5"/>
<circle cx="265.2" cy="149.6" r="0.8" fill="#334155" opacity="0.5"/>
<circle cx="267.0" cy="189.0" r="0.8" fill="#334155" opacity="0.5"/>
<circle cx="266.6" cy="228.6" r="0.8" fill="#334155" opacity="0.5"/>
<circle cx="263.0" cy="267.7" r="0.8" fill="#334155" opacity="0.5"/>
<circle cx="280.6" cy="27.7" r="0.8" fill="#334155" opacity="0.5"/>
<circle cx="283.4" cy="71.6" r="0.8" fill="#334155" opacity="0.5"/>
<circle cx="280.6" cy="108.3" r="0.8" fill="#334155" opacity="0.5"/>
<circle cx="283.0" cy="151.3" r="0.8" fill="#334155" opacity="0.5"/>
<circle cx="286.9" cy="190.1" r="0.8" fill="#334155" opacity="0.5"/>
<circle cx="281.3" cy="227.6" r="0.8" fill="#334155" opacity="0.5"/>
<circle cx="280.6" cy="268.4" r="0.8" fill="#334155" opacity="0.5"/>
<circle cx="298.6" cy="27.1" r="0.8" fill="#334155" opacity="0.5"/>
<circle cx="301.4" cy="68.6" r="0.8" fill="#334155" opacity="0.5"/>
<circle cx="304.9" cy="110.3" r="0.8" fill="#334155" opacity="0.5"/>
<circle cx="302.7" cy="147.8" r="0.8" fill="#334155" opacity="0.5"/>
<circle cx="304.1" cy="189.9" r="0.8" fill="#334155" opacity="0.5"/>
<circle cx="304.1" cy="230.4" r="0.8" fill="#334155" opacity="0.5"/>
<circle cx="300.9" cy="269.6" r="0.8" fill="#334155" opacity="0.5"/>
<circle cx="316.7" cy="27.3" r="0.8" fill="#334155" opacity="0.5"/>
<circle cx="322.8" cy="69.9" r="0.8" fill="#334155" opacity="0.5"/>
<circle cx="321.8" cy="109.4" r="0.8" fill="#334155" opacity="0.5"/>
<circle cx="315.8" cy="150.8" r="0.8" fill="#334155" opacity="0.5"/>
<circle cx="315.7" cy="187.9" r="0.8" fill="#334155" opacity="0.5"/>
<circle cx="319.7" cy="228.8" r="0.8" fill="#334155" opacity="0.5"/>
<circle cx="323.2" cy="267.7" r="0.8" fill="#334155" opacity="0.5"/>
<circle cx="339.4" cy="30.6" r="0.8" fill="#334155" opacity="0.5"/>
<circle cx="339.6" cy="68.4" r="0.8" fill="#334155" opacity="0.5"/>
<circle cx="337.5" cy="109.7" r="0.8" fill="#334155" opacity="0.5"/>
<circle cx="336.8" cy="152.2" r="0.8" fill="#334155" opacity="0.5"/>
<circle cx="341.2" cy="188.8" r="0.8" fill="#334155" opacity="0.5"/>
<circle cx="338.3" cy="230.7" r="0.8" fill="#334155" opacity="0.5"/>
<circle cx="339.2" cy="272.7" r="0.8" fill="#334155" opacity="0.5"/>
<circle cx="353.0" cy="28.3" r="0.8" fill="#334155" opacity="0.5"/>
<circle cx="356.7" cy="67.9" r="0.8" fill="#334155" opacity="0.5"/>
<circle cx="352.8" cy="107.5" r="0.8" fill="#334155" opacity="0.5"/>
<circle cx="351.4" cy="149.7" r="0.8" fill="#334155" opacity="0.5"/>
<circle cx="356.1" cy="188.7" r="0.8" fill="#334155" opacity="0.5"/>
<circle cx="353.2" cy="231.2" r="0.8" fill="#334155" opacity="0.5"/>
<circle cx="357.0" cy="269.7" r="0.8" fill="#334155" opacity="0.5"/>
<circle cx="375.0" cy="32.5" r="0.8" fill="#334155" opacity="0.5"/>
<circle cx="375.8" cy="70.8" r="0.8" fill="#334155" opacity="0.5"/>
<circle cx="374.8" cy="112.6" r="1.0" fill="white" filter="url(#starGlow)" opacity="0.95"/>
<circle cx="372.9" cy="150.3" r="1.0" fill="white" filter="url(#starGlow)" opacity="0.95"/>
<circle cx="374.6" cy="192.5" r="0.8" fill="#334155" opacity="0.5"/>
<circle cx="376.1" cy="227.4" r="0.8" fill="#334155" opacity="0.5"/>
<circle cx="370.8" cy="268.8" r="0.8" fill="#334155" opacity="0.5"/>
<circle cx="393.5" cy="30.4" r="0.8" fill="#334155" opacity="0.5"/>
<circle cx="389.8" cy="67.7" r="0.8" fill="#334155" opacity="0.5"/>
<circle cx="393.0" cy="111.2" r="0.8" fill="#334155" opacity="0.5"/>
<circle cx="395.1" cy="150.0" r="0.8" fill="#334155" opacity="0.5"/>
<circle cx="391.5" cy="187.5" r="0.8" fill="#334155" opacity="0.5"/>
<circle cx="387.9" cy="229.6" r="0.8" fill="#334155" opacity="0.5"/>
<circle cx="390.1" cy="268.5" r="0.8" fill="#334155" opacity="0.5"/>
<circle cx="406.3" cy="32.8" r="0.8" fill="#334155" opacity="0.5"/>
<circle cx="412.3" cy="70.5" r="0.8" fill="#334155" opacity="0.5"/>
<circle cx="413.2" cy="113.0" r="0.8" fill="#334155" opacity="0.5"/>
<circle cx="411.0" cy="148.6" r="0.8" fill="#334155" opacity="0.5"/>
<circle cx="405.9" cy="191.5" r="0.8" fill="#334155" opacity="0.5"/>
<circle cx="409.4" cy="230.9" r="0.8" fill="#334155" opacity="0.5"/>
<circle cx="412.9" cy="268.1" r="0.8" fill="#334155" opacity="0.5"/>
<circle cx="428.4" cy="30.8" r="0.8" fill="#334155" opacity="0.5"/>
<circle cx="427.6" cy="67.5" r="0.8" fill="#334155" opacity="0.5"/>
<circle cx="426.5" cy="109.0" r="0.8" fill="#334155" opacity="0.5"/>
<circle cx="429.1" cy="152.1" r="0.8" fill="#334155" opacity="0.5"/>
<circle cx="426.3" cy="191.2" r="0.8" fill="#334155" opacity="0.5"/>
<circle cx="426.0" cy="232.7" r="0.8" fill="#334155" opacity="0.5"/>
<circle cx="430.2" cy="270.3" r="0.8" fill="#334155" opacity="0.5"/>
<circle cx="445.4" cy="28.9" r="0.8" fill="#334155" opacity="0.5"/>
<circle cx="444.4" cy="72.8" r="0.8" fill="#334155" opacity="0.5"/>
<circle cx="445.0" cy="110.1" r="0.8" fill="#334155" opacity="0.5"/>
<circle cx="449.7" cy="150.9" r="0.8" fill="#334155" opacity="0.5"/>
<circle cx="446.1" cy="189.5" r="0.8" fill="#334155" opacity="0.5"/>
<circle cx="443.3" cy="229.2" r="0.8" fill="#334155" opacity="0.5"/>
<circle cx="447.8" cy="270.8" r="0.8" fill="#334155" opacity="0.5"/>
<circle cx="465.9" cy="28.2" r="0.8" fill="#334155" opacity="0.5"/>
<circle cx="464.2" cy="72.6" r="0.8" fill="#334155" opacity="0.5"/>
<circle cx="463.4" cy="111.2" r="0.8" fill="#334155" opacity="0.5"/>
<circle cx="460.8" cy="152.8" r="0.8" fill="#334155" opacity="0.5"/>
<circle cx="464.7" cy="188.4" r="0.8" fill="#334155" opacity="0.5"/>
<circle cx="461.1" cy="230.3" r="0.8" fill="#334155" opacity="0.5"/>
<circle cx="464.3" cy="267.6" r="0.8" fill="#334155" opacity="0.5"/>
<circle cx="485.9" cy="32.5" r="0.8" fill="#334155" opacity="0.5"/>
<circle cx="481.6" cy="67.7" r="0.8" fill="#334155" opacity="0.5"/>
<circle cx="484.6" cy="110.0" r="0.8" fill="#334155" opacity="0.5"/>
<circle cx="483.7" cy="150.1" r="0.8" fill="#334155" opacity="0.5"/>
<circle cx="480.1" cy="192.0" r="1.0" fill="#93c5fd" opacity="0.7"/>
<circle cx="485.8" cy="228.5" r="0.8" fill="#334155" opacity="0.5"/>
<circle cx="482.3" cy="269.3" r="0.8" fill="#334155" opacity="0.5"/>
<circle cx="503.4" cy="30.0" r="1.0" fill="#93c5fd" opacity="0.7"/>
<circle cx="503.0" cy="72.2" r="0.8" fill="#334155" opacity="0.5"/>
<circle cx="498.2" cy="111.7" r="0.8" fill="#334155" opacity="0.5"/>
<circle cx="499.3" cy="152.6" r="0.8" fill="#334155" opacity="0.5"/>
<circle cx="500.1" cy="191.9" r="0.8" fill="#334155" opacity="0.5"/>
<circle cx="498.3" cy="228.8" r="0.8" fill="#334155" opacity="0.5"/>
<circle cx="500.7" cy="273.0" r="0.8" fill="#334155" opacity="0.5"/>
<circle cx="518.0" cy="27.9" r="0.8" fill="#334155" opacity="0.5"/>
<circle cx="518.4" cy="69.1" r="0.8" fill="#334155" opacity="0.5"/>
<circle cx="518.5" cy="110.3" r="0.8" fill="#334155" opacity="0.5"/>
<circle cx="517.7" cy="148.9" r="0.8" fill="#334155" opacity="0.5"/>
<circle cx="515.6" cy="191.2" r="0.8" fill="#334155" opacity="0.5"/>
<circle cx="518.7" cy="228.4" r="0.8" fill="#334155" opacity="0.5"/>
<circle cx="520.3" cy="267.3" r="0.8" fill="#334155" opacity="0.5"/>
<circle cx="538.1" cy="31.2" r="0.8" fill="#334155" opacity="0.5"/>
<circle cx="538.6" cy="69.3" r="0.8" fill="#334155" opacity="0.5"/>
<circle cx="537.5" cy="111.9" r="0.8" fill="#334155" opacity="0.5"/>
<circle cx="540.0" cy="150.0" r="0.8" fill="#334155" opacity="0.5"/>
<circle cx="532.5" cy="190.0" r="0.8" fill="#334155" opacity="0.5"/>
<circle cx="536.9" cy="232.2" r="0.8" fill="#334155" opacity="0.5"/>
<circle cx="539.1" cy="269.6" r="1.0" fill="#93c5fd" opacity="0.7"/>
<circle cx="554.4" cy="29.7" r="0.8" fill="#334155" opacity="0.5"/>
<circle cx="556.0" cy="69.5" r="0.8" fill="#334155" opacity="0.5"/>
<circle cx="555.5" cy="107.9" r="0.8" fill="#334155" opacity="0.5"/>
<circle cx="554.0" cy="152.8" r="0.8" fill="#334155" opacity="0.5"/>
<circle cx="552.9" cy="191.2" r="0.8" fill="#334155" opacity="0.5"/>
<circle cx="555.4" cy="232.1" r="0.8" fill="#334155" opacity="0.5"/>
<circle cx="557.0" cy="272.2" r="1.0" fill="white" filter="url(#starGlow)" opacity="0.95"/>
<circle cx="571.3" cy="28.9" r="1.0" fill="white" filter="url(#starGlow)" opacity="0.95"/>
<circle cx="574.1" cy="71.6" r="1.0" fill="#93c5fd" opacity="0.7"/>
<circle cx="575.3" cy="107.2" r="0.8" fill="#334155" opacity="0.5"/>
<circle cx="568.9" cy="150.8" r="0.8" fill="#334155" opacity="0.5"/>
<circle cx="575.7" cy="193.0" r="0.8" fill="#334155" opacity="0.5"/>
<circle cx="574.3" cy="229.6" r="0.8" fill="#334155" opacity="0.5"/>
<circle cx="569.1" cy="270.8" r="0.8" fill="#334155" opacity="0.5"/>
<circle cx="593.4" cy="29.7" r="1.0" fill="#93c5fd" opacity="0.7"/>
<circle cx="591.9" cy="72.4" r="1.0" fill="white" filter="url(#starGlow)" opacity="0.95"/>
<circle cx="586.8" cy="111.8" r="0.8" fill="#334155" opacity="0.5"/>
<circle cx="588.7" cy="149.2" r="0.8" fill="#334155" opacity="0.5"/>
<circle cx="587.5" cy="190.2" r="0.8" fill="#334155" opacity="0.5"/>
<circle cx="590.9" cy="231.8" r="0.8" fill="#334155" opacity="0.5"/>
<circle cx="587.7" cy="267.5" r="0.8" fill="#334155" opacity="0.5"/>
<circle cx="611.4" cy="30.7" r="0.8" fill="#334155" opacity="0.5"/>
<circle cx="606.4" cy="72.5" r="0.8" fill="#334155" opacity="0.5"/>
<circle cx="605.6" cy="109.8" r="0.8" fill="#334155" opacity="0.5"/>
<circle cx="606.5" cy="148.5" r="0.8" fill="#334155" opacity="0.5"/>
<circle cx="604.5" cy="191.8" r="0.8" fill="#334155" opacity="0.5"/>
<circle cx="611.7" cy="231.1" r="0.8" fill="#334155" opacity="0.5"/>
<circle cx="605.7" cy="269.7" r="0.8" fill="#334155" opacity="0.5"/>
<circle cx="625.3" cy="30.5" r="0.8" fill="#334155" opacity="0.5"/>
<circle cx="627.6" cy="69.5" r="0.8" fill="#334155" opacity="0.5"/>
<circle cx="624.5" cy="112.1" r="0.8" fill="#334155" opacity="0.5"/>
<circle cx="624.1" cy="149.3" r="0.8" fill="#334155" opacity="0.5"/>
<circle cx="626.4" cy="188.4" r="1.0" fill="white" filter="url(#starGlow)" opacity="0.95"/>
<circle cx="627.1" cy="230.4" r="0.8" fill="#334155" opacity="0.5"/>
<circle cx="630.5" cy="268.8" r="0.8" fill="#334155" opacity="0.5"/>
<circle cx="648.4" cy="30.9" r="0.8" fill="#334155" opacity="0.5"/>
<circle cx="642.8" cy="70.4" r="0.8" fill="#334155" opacity="0.5"/>
<circle cx="646.1" cy="111.5" r="0.8" fill="#334155" opacity="0.5"/>
<circle cx="641.0" cy="150.6" r="0.8" fill="#334155" opacity="0.5"/>
<circle cx="644.6" cy="192.4" r="0.8" fill="#334155" opacity="0.5"/>
<circle cx="642.9" cy="231.8" r="0.8" fill="#334155" opacity="0.5"/>
<circle cx="645.5" cy="269.1" r="0.8" fill="#334155" opacity="0.5"/>
<circle cx="663.8" cy="30.7" r="0.8" fill="#334155" opacity="0.5"/>
<circle cx="664.1" cy="71.3" r="0.8" fill="#334155" opacity="0.5"/>
<circle cx="664.0" cy="112.0" r="0.8" fill="#334155" opacity="0.5"/>
<circle cx="663.7" cy="152.4" r="0.8" fill="#334155" opacity="0.5"/>
<circle cx="663.9" cy="188.9" r="0.8" fill="#334155" opacity="0.5"/>
<circle cx="662.2" cy="230.5" r="0.8" fill="#334155" opacity="0.5"/>
<circle cx="664.6" cy="267.5" r="0.8" fill="#334155" opacity="0.5"/>
<circle cx="679.1" cy="31.5" r="0.8" fill="#334155" opacity="0.5"/>
<circle cx="678.2" cy="67.8" r="0.8" fill="#334155" opacity="0.5"/>
<circle cx="681.1" cy="112.8" r="0.8" fill="#334155" opacity="0.5"/>
<circle cx="681.0" cy="152.5" r="0.8" fill="#334155" opacity="0.5"/>
<circle cx="683.4" cy="188.5" r="1.0" fill="white" filter="url(#starGlow)" opacity="0.95"/>
<circle cx="683.4" cy="229.9" r="0.8" fill="#334155" opacity="0.5"/>
<circle cx="683.2" cy="271.5" r="1.0" fill="#93c5fd" opacity="0.7"/>
<circle cx="697.6" cy="27.7" r="0.8" fill="#334155" opacity="0.5"/>
<circle cx="702.5" cy="67.8" r="0.8" fill="#334155" opacity="0.5"/>
<circle cx="702.6" cy="112.2" r="0.8" fill="#334155" opacity="0.5"/>
<circle cx="700.6" cy="152.9" r="0.8" fill="#334155" opacity="0.5"/>
<circle cx="702.6" cy="191.8" r="0.8" fill="#334155" opacity="0.5"/>
<circle cx="697.8" cy="231.7" r="0.8" fill="#334155" opacity="0.5"/>
<circle cx="695.0" cy="270.2" r="0.8" fill="#334155" opacity="0.5"/>
<circle cx="716.6" cy="31.0" r="0.8" fill="#334155" opacity="0.5"/>
<circle cx="718.3" cy="70.5" r="0.8" fill="#334155" opacity="0.5"/>
<circle cx="719.5" cy="112.6" r="0.8" fill="#334155" opacity="0.5"/>
<circle cx="713.8" cy="148.4" r="0.8" fill="#334155" opacity="0.5"/>
<circle cx="713.1" cy="192.3" r="0.8" fill="#334155" opacity="0.5"/>
<circle cx="717.4" cy="232.5" r="0.8" fill="#334155" opacity="0.5"/>
<circle cx="714.7" cy="267.4" r="0.8" fill="#334155" opacity="0.5"/>
<circle cx="737.6" cy="32.5" r="0.8" fill="#334155" opacity="0.5"/>
<circle cx="733.4" cy="69.4" r="1.0" fill="white" filter="url(#starGlow)" opacity="0.95"/>
<circle cx="732.1" cy="112.7" r="1.0" fill="#93c5fd" opacity="0.7"/>
<circle cx="733.4" cy="150.0" r="0.8" fill="#334155" opacity="0.5"/>
<circle cx="731.8" cy="192.3" r="0.8" fill="#334155" opacity="0.5"/>
<circle cx="732.1" cy="229.7" r="0.8" fill="#334155" opacity="0.5"/>
<circle cx="736.4" cy="271.5" r="0.8" fill="#334155" opacity="0.5"/>
<circle cx="756.6" cy="29.5" r="1.0" fill="white" filter="url(#starGlow)" opacity="0.95"/>
<circle cx="755.0" cy="67.9" r="1.0" fill="white" filter="url(#starGlow)" opacity="0.95"/>
<circle cx="752.4" cy="107.6" r="1.0" fill="white" filter="url(#starGlow)" opacity="0.95"/>
<circle cx="753.0" cy="149.4" r="1.0" fill="white" filter="url(#starGlow)" opacity="0.95"/>
<circle cx="756.7" cy="187.2" r="1.0" fill="#93c5fd" opacity="0.7"/>
<circle cx="752.0" cy="229.7" r="0.8" fill="#334155" opacity="0.5"/>
<circle cx="756.7" cy="272.1" r="0.8" fill="#334155" opacity="0.5"/>
<circle cx="767.9" cy="31.1" r="0.8" fill="#334155" opacity="0.5"/>
<circle cx="771.5" cy="72.9" r="0.8" fill="#334155" opacity="0.5"/>
<circle cx="770.0" cy="109.4" r="0.8" fill="#334155" opacity="0.5"/>
<circle cx="768.7" cy="147.7" r="0.8" fill="#334155" opacity="0.5"/>
<circle cx="773.9" cy="189.7" r="1.3" fill="white" filter="url(#starGlow)" opacity="0.95"/>
<circle cx="772.5" cy="230.9" r="0.8" fill="#334155" opacity="0.5"/>
<circle cx="771.9" cy="267.1" r="0.8" fill="#334155" opacity="0.5"/>
<circle cx="791.5" cy="28.5" r="0.8" fill="#334155" opacity="0.5"/>
<circle cx="786.2" cy="70.4" r="0.8" fill="#334155" opacity="0.5"/>
<circle cx="785.8" cy="111.6" r="0.8" fill="#334155" opacity="0.5"/>
<circle cx="786.9" cy="148.3" r="0.8" fill="#334155" opacity="0.5"/>
<circle cx="792.2" cy="189.0" r="0.8" fill="#334155" opacity="0.5"/>
<circle cx="786.4" cy="232.4" r="0.8" fill="#334155" opacity="0.5"/>
<circle cx="785.3" cy="272.2" r="0.8" fill="#334155" opacity="0.5"/>
<circle cx="804.5" cy="27.8" r="0.8" fill="#334155" opacity="0.5"/>
<circle cx="805.3" cy="68.0" r="0.8" fill="#334155" opacity="0.5"/>
<circle cx="808.6" cy="107.2" r="0.8" fill="#334155" opacity="0.5"/>
<circle cx="803.4" cy="151.7" r="0.8" fill="#334155" opacity="0.5"/>
<circle cx="805.2" cy="188.9" r="0.8" fill="#334155" opacity="0.5"/>
<circle cx="804.7" cy="227.3" r="0.8" fill="#334155" opacity="0.5"/>
<circle cx="809.2" cy="270.2" r="0.8" fill="#334155" opacity="0.5"/>
<circle cx="827.3" cy="29.9" r="0.8" fill="#334155" opacity="0.5"/>
<circle cx="827.6" cy="70.1" r="0.8" fill="#334155" opacity="0.5"/>
<circle cx="822.3" cy="110.0" r="0.8" fill="#334155" opacity="0.5"/>
<circle cx="828.9" cy="147.3" r="0.8" fill="#334155" opacity="0.5"/>
<circle cx="827.7" cy="192.2" r="0.8" fill="#334155" opacity="0.5"/>
<circle cx="825.6" cy="229.7" r="0.8" fill="#334155" opacity="0.5"/>
<circle cx="829.1" cy="267.4" r="0.8" fill="#334155" opacity="0.5"/>
<circle cx="843.3" cy="29.4" r="0.8" fill="#334155" opacity="0.5"/>
<circle cx="845.0" cy="69.9" r="0.8" fill="#334155" opacity="0.5"/>
<circle cx="846.7" cy="107.4" r="1.0" fill="#93c5fd" opacity="0.7"/>
<circle cx="840.1" cy="150.6" r="0.8" fill="#334155" opacity="0.5"/>
<circle cx="840.0" cy="188.7" r="0.8" fill="#334155" opacity="0.5"/>
<circle cx="844.5" cy="230.3" r="0.8" fill="#334155" opacity="0.5"/>
<circle cx="842.1" cy="273.0" r="0.8" fill="#334155" opacity="0.5"/>
<circle cx="861.8" cy="29.7" r="0.8" fill="#334155" opacity="0.5"/>
<circle cx="862.4" cy="67.6" r="0.8" fill="#334155" opacity="0.5"/>
<circle cx="863.2" cy="112.1" r="0.8" fill="#334155" opacity="0.5"/>
<circle cx="862.7" cy="151.6" r="0.8" fill="#334155" opacity="0.5"/>
<circle cx="863.3" cy="188.3" r="2.3" fill="white" filter="url(#starGlow)" opacity="0.95"/>
<circle cx="861.2" cy="228.4" r="1.0" fill="white" filter="url(#starGlow)" opacity="0.95"/>
<circle cx="860.2" cy="269.7" r="1.0" fill="#93c5fd" opacity="0.7"/>
<circle cx="878.9" cy="27.6" r="2.5" fill="white" filter="url(#starGlow)" opacity="0.95"/>
<circle cx="879.0" cy="71.0" r="4.2" fill="white" filter="url(#starGlow)" opacity="0.95"/>
<line x1="879.0" y1="60.6" x2="879.0" y2="81.4" stroke="white" stroke-width="0.5" opacity="0.5"/>
<line x1="868.6" y1="71.0" x2="889.4" y2="71.0" stroke="white" stroke-width="0.5" opacity="0.5"/>
<circle cx="878.6" cy="107.9" r="1.0" fill="#93c5fd" opacity="0.7"/>
<circle cx="883.0" cy="147.4" r="7.0" fill="white" filter="url(#starGlow)" opacity="0.95"/>
<line x1="883.0" y1="129.9" x2="883.0" y2="164.9" stroke="white" stroke-width="0.5" opacity="0.5"/>
<line x1="865.5" y1="147.4" x2="900.5" y2="147.4" stroke="white" stroke-width="0.5" opacity="0.5"/>
<circle cx="882.3" cy="187.6" r="3.0" fill="white" filter="url(#starGlow)" opacity="0.95"/>
<circle cx="876.4" cy="231.4" r="1.0" fill="white" filter="url(#starGlow)" opacity="0.95"/>
<circle cx="882.1" cy="270.3" r="1.0" fill="white" filter="url(#starGlow)" opacity="0.95"/>
<circle cx="898.4" cy="30.4" r="0.8" fill="#334155" opacity="0.5"/>
<circle cx="896.3" cy="67.7" r="0.8" fill="#334155" opacity="0.5"/>
<circle cx="896.5" cy="111.0" r="0.8" fill="#334155" opacity="0.5"/>
<circle cx="899.7" cy="152.2" r="1.0" fill="white" filter="url(#starGlow)" opacity="0.95"/>
<circle cx="899.5" cy="192.8" r="1.0" fill="white" filter="url(#starGlow)" opacity="0.95"/>
<circle cx="898.5" cy="229.1" r="1.0" fill="white" filter="url(#starGlow)" opacity="0.95"/>
<circle cx="898.3" cy="268.3" r="1.0" fill="white" filter="url(#starGlow)" opacity="0.95"/>
<circle cx="917.0" cy="28.3" r="1.0" fill="white" filter="url(#starGlow)" opacity="0.95"/>
<circle cx="912.6" cy="72.1" r="1.0" fill="#93c5fd" opacity="0.7"/>
<circle cx="914.7" cy="111.6" r="1.0" fill="white" filter="url(#starGlow)" opacity="0.95"/>
<circle cx="916.4" cy="151.8" r="1.0" fill="white" filter="url(#starGlow)" opacity="0.95"/>
<circle cx="918.5" cy="192.8" r="1.0" fill="white" filter="url(#starGlow)" opacity="0.95"/>
<circle cx="918.3" cy="230.7" r="0.8" fill="#334155" opacity="0.5"/>
<circle cx="916.9" cy="267.2" r="0.8" fill="#334155" opacity="0.5"/>
<circle cx="937.3" cy="32.0" r="0.8" fill="#334155" opacity="0.5"/>
<circle cx="932.0" cy="68.1" r="0.8" fill="#334155" opacity="0.5"/>
<circle cx="935.5" cy="108.9" r="1.0" fill="white" filter="url(#starGlow)" opacity="0.95"/>
<circle cx="932.6" cy="147.0" r="0.8" fill="#334155" opacity="0.5"/>
<circle cx="936.8" cy="190.4" r="1.0" fill="white" filter="url(#starGlow)" opacity="0.95"/>
<circle cx="933.1" cy="227.9" r="1.0" fill="white" filter="url(#starGlow)" opacity="0.95"/>
<circle cx="934.9" cy="267.2" r="0.8" fill="#334155" opacity="0.5"/>
<circle cx="953.9" cy="28.3" r="0.8" fill="#334155" opacity="0.5"/>
<circle cx="951.3" cy="69.0" r="0.8" fill="#334155" opacity="0.5"/>
<circle cx="950.9" cy="111.3" r="1.0" fill="white" filter="url(#starGlow)" opacity="0.95"/>
<circle cx="954.1" cy="150.4" r="0.8" fill="#334155" opacity="0.5"/>
<circle cx="948.6" cy="187.3" r="0.8" fill="#334155" opacity="0.5"/>
<circle cx="949.2" cy="230.7" r="1.0" fill="white" filter="url(#starGlow)" opacity="0.95"/>
<circle cx="953.3" cy="268.6" r="0.8" fill="#334155" opacity="0.5"/>
<circle cx="971.3" cy="29.9" r="1.0" fill="#93c5fd" opacity="0.7"/>
<circle cx="969.5" cy="68.6" r="1.0" fill="#93c5fd" opacity="0.7"/>
<circle cx="972.0" cy="107.7" r="1.0" fill="white" filter="url(#starGlow)" opacity="0.95"/>
<circle cx="969.4" cy="148.7" r="0.8" fill="#334155" opacity="0.5"/>
<circle cx="971.4" cy="189.9" r="0.8" fill="#334155" opacity="0.5"/>
</svg>