<svg xmlns="http://www.w3.org/2000/svg" viewBox="0 0 1000 300" width="1000" height="300">
  <defs>
    <!-- Deep space background -->
    <radialGradient id="space" cx="45%" cy="40%" r="65%">
      <stop offset="0%"   stop-color="#0c1445"/>
      <stop offset="55%"  stop-color="#060820"/>
      <stop offset="100%" stop-color="#020209"/>
    </radialGradient>

    <!-- Nebula gradients -->
    <radialGradient id="neb1" cx="50%" cy="50%" r="50%">
      <stop offset="0%"   stop-color="#7c3aed" stop-opacity="0.30"/>
      <stop offset="60%"  stop-color="#4f46e5" stop-opacity="0.12"/>
      <stop offset="100%" stop-color="#4f46e5" stop-opacity="0"/>
    </radialGradient>
    <radialGradient id="neb2" cx="50%" cy="50%" r="50%">
      <stop offset="0%"   stop-color="#0ea5e9" stop-opacity="0.22"/>
      <stop offset="55%"  stop-color="#06b6d4" stop-opacity="0.08"/>
      <stop offset="100%" stop-color="#06b6d4" stop-opacity="0"/>
    </radialGradient>
    <radialGradient id="neb3" cx="50%" cy="50%" r="50%">
      <stop offset="0%"   stop-color="#ec4899" stop-opacity="0.18"/>
      <stop offset="55%"  stop-color="#f43f5e" stop-opacity="0.06"/>
      <stop offset="100%" stop-color="#f43f5e" stop-opacity="0"/>
    </radialGradient>
    <radialGradient id="neb4" cx="50%" cy="50%" r="50%">
      <stop offset="0%"   stop-color="#f59e0b" stop-opacity="0.14"/>
      <stop offset="55%"  stop-color="#f97316" stop-opacity="0.05"/>
      <stop offset="100%" stop-color="#f97316" stop-opacity="0"/>
    </radialGradient>

    <!-- Star glow -->
    <filter id="starGlow" x="-100%" y="-100%" width="300%" height="300%">
      <feGaussianBlur stdDeviation="3" result="blur"/>
      <feMerge>
        <feMergeNode in="blur"/>
        <feMergeNode in="SourceGraphic"/>
      </feMerge>
    </filter>
    <!-- Bright star glow -->
    <filter id="brightGlow" x="-150%" y="-150%" width="400%" height="400%">
      <feGaussianBlur stdDeviation="5" result="blur"/>
      <feMerge>
        <feMergeNode in="blur"/>
        <feMergeNode in="SourceGraphic"/>
      </feMerge>
    </filter>
    <!-- Mega glow for the brightest stars -->
    <filter id="megaGlow" x="-200%" y="-200%" width="500%" height="500%">
      <feGaussianBlur stdDeviation="8" result="blur"/>
      <feMerge>
        <feMergeNode in="blur"/>
        <feMergeNode in="SourceGraphic"/>
      </feMerge>
    </filter>
    <filter id="nebulaBlur" x="-10%" y="-10%" width="120%" height="120%">
      <feGaussianBlur stdDeviation="18"/>
    </filter>
  </defs>

  <!-- Deep space background -->
  <rect width="1000" height="300" fill="url(#space)"/>

  <!-- ── Nebulae ──────────────────────────────────────────────────────────── -->
  <ellipse cx="180" cy="110" rx="200" ry="120" fill="url(#neb1)" filter="url(#nebulaBlur)"/>
  <ellipse cx="680" cy="180" rx="240" ry="130" fill="url(#neb2)" filter="url(#nebulaBlur)"/>
  <ellipse cx="490" cy="65"  rx="190" ry="90"  fill="url(#neb3)" filter="url(#nebulaBlur)"/>
  <ellipse cx="850" cy="80"  rx="150" ry="80"  fill="url(#neb4)" filter="url(#nebulaBlur)"/>
  <ellipse cx="300" cy="240" rx="170" ry="70"  fill="url(#neb1)" filter="url(#nebulaBlur)" opacity="0.6"/>

  <!-- ── Background micro-stars (random scatter) ────────────────────────── -->
  <!-- Row 1 -->
  <circle cx="15"  cy="8"   r="0.4" fill="white" opacity="0.3"/>
  <circle cx="43"  cy="22"  r="0.5" fill="white" opacity="0.4"/>
  <circle cx="68"  cy="5"   r="0.3" fill="white" opacity="0.35"/>
  <circle cx="91"  cy="38"  r="0.6" fill="white" opacity="0.45"/>
  <circle cx="117" cy="14"  r="0.4" fill="white" opacity="0.3"/>
  <circle cx="142" cy="47"  r="0.5" fill="white" opacity="0.4"/>
  <circle cx="163" cy="9"   r="0.3" fill="white" opacity="0.35"/>
  <circle cx="189" cy="31"  r="0.6" fill="white" opacity="0.5"/>
  <circle cx="214" cy="18"  r="0.4" fill="white" opacity="0.3"/>
  <circle cx="238" cy="52"  r="0.5" fill="white" opacity="0.4"/>
  <circle cx="261" cy="7"   r="0.3" fill="white" opacity="0.35"/>
  <circle cx="285" cy="27"  r="0.6" fill="white" opacity="0.45"/>
  <circle cx="309" cy="44"  r="0.4" fill="white" opacity="0.3"/>
  <circle cx="333" cy="12"  r="0.5" fill="white" opacity="0.4"/>
  <circle cx="356" cy="58"  r="0.3" fill="white" opacity="0.35"/>
  <circle cx="380" cy="23"  r="0.6" fill="white" opacity="0.5"/>
  <circle cx="403" cy="39"  r="0.4" fill="white" opacity="0.3"/>
  <circle cx="427" cy="10"  r="0.5" fill="white" opacity="0.4"/>
  <circle cx="450" cy="49"  r="0.3" fill="white" opacity="0.35"/>
  <circle cx="474" cy="19"  r="0.6" fill="white" opacity="0.45"/>
  <circle cx="498" cy="35"  r="0.4" fill="white" opacity="0.3"/>
  <circle cx="521" cy="55"  r="0.5" fill="white" opacity="0.4"/>
  <circle cx="545" cy="8"   r="0.3" fill="white" opacity="0.35"/>
  <circle cx="568" cy="42"  r="0.6" fill="white" opacity="0.5"/>
  <circle cx="592" cy="25"  r="0.4" fill="white" opacity="0.3"/>
  <circle cx="615" cy="61"  r="0.5" fill="white" opacity="0.4"/>
  <circle cx="639" cy="13"  r="0.3" fill="white" opacity="0.35"/>
  <circle cx="662" cy="46"  r="0.6" fill="white" opacity="0.45"/>
  <circle cx="686" cy="28"  r="0.4" fill="white" opacity="0.3"/>
  <circle cx="709" cy="7"   r="0.5" fill="white" opacity="0.4"/>
  <circle cx="733" cy="53"  r="0.3" fill="white" opacity="0.35"/>
  <circle cx="756" cy="17"  r="0.6" fill="white" opacity="0.5"/>
  <circle cx="780" cy="40"  r="0.4" fill="white" opacity="0.3"/>
  <circle cx="803" cy="29"  r="0.5" fill="white" opacity="0.4"/>
  <circle cx="827" cy="57"  r="0.3" fill="white" opacity="0.35"/>
  <circle cx="850" cy="11"  r="0.6" fill="white" opacity="0.45"/>
  <circle cx="874" cy="33"  r="0.4" fill="white" opacity="0.3"/>
  <circle cx="897" cy="48"  r="0.5" fill="white" opacity="0.4"/>
  <circle cx="921" cy="20"  r="0.3" fill="white" opacity="0.35"/>
  <circle cx="944" cy="36"  r="0.6" fill="white" opacity="0.5"/>
  <circle cx="968" cy="9"   r="0.4" fill="white" opacity="0.3"/>
  <circle cx="991" cy="25"  r="0.5" fill="white" opacity="0.4"/>
  <!-- Row 2 -->
  <circle cx="28"  cy="75"  r="0.5" fill="white" opacity="0.35"/>
  <circle cx="55"  cy="88"  r="0.4" fill="white" opacity="0.45"/>
  <circle cx="82"  cy="62"  r="0.6" fill="white" opacity="0.3"/>
  <circle cx="108" cy="95"  r="0.3" fill="white" opacity="0.4"/>
  <circle cx="135" cy="70"  r="0.5" fill="white" opacity="0.5"/>
  <circle cx="175" cy="83"  r="0.4" fill="white" opacity="0.35"/>
  <circle cx="202" cy="67"  r="0.6" fill="white" opacity="0.45"/>
  <circle cx="228" cy="91"  r="0.3" fill="white" opacity="0.3"/>
  <circle cx="255" cy="74"  r="0.5" fill="white" opacity="0.4"/>
  <circle cx="282" cy="60"  r="0.4" fill="white" opacity="0.5"/>
  <circle cx="321" cy="87"  r="0.6" fill="white" opacity="0.35"/>
  <circle cx="347" cy="73"  r="0.3" fill="white" opacity="0.45"/>
  <circle cx="374" cy="96"  r="0.5" fill="white" opacity="0.3"/>
  <circle cx="417" cy="79"  r="0.4" fill="white" opacity="0.4"/>
  <circle cx="443" cy="65"  r="0.6" fill="white" opacity="0.5"/>
  <circle cx="469" cy="90"  r="0.3" fill="white" opacity="0.35"/>
  <circle cx="512" cy="76"  r="0.5" fill="white" opacity="0.45"/>
  <circle cx="538" cy="93"  r="0.4" fill="white" opacity="0.3"/>
  <circle cx="565" cy="68"  r="0.6" fill="white" opacity="0.4"/>
  <circle cx="604" cy="84"  r="0.3" fill="white" opacity="0.5"/>
  <circle cx="630" cy="71"  r="0.5" fill="white" opacity="0.35"/>
  <circle cx="657" cy="97"  r="0.4" fill="white" opacity="0.45"/>
  <circle cx="695" cy="63"  r="0.6" fill="white" opacity="0.3"/>
  <circle cx="722" cy="85"  r="0.3" fill="white" opacity="0.4"/>
  <circle cx="748" cy="77"  r="0.5" fill="white" opacity="0.5"/>
  <circle cx="787" cy="69"  r="0.4" fill="white" opacity="0.35"/>
  <circle cx="814" cy="94"  r="0.6" fill="white" opacity="0.45"/>
  <circle cx="840" cy="72"  r="0.3" fill="white" opacity="0.3"/>
  <circle cx="878" cy="88"  r="0.5" fill="white" opacity="0.4"/>
  <circle cx="905" cy="64"  r="0.4" fill="white" opacity="0.5"/>
  <circle cx="931" cy="80"  r="0.6" fill="white" opacity="0.35"/>
  <circle cx="958" cy="75"  r="0.3" fill="white" opacity="0.45"/>
  <circle cx="985" cy="91"  r="0.5" fill="white" opacity="0.3"/>

  <!-- ── Constellation connection lines ─────────────────────────────────── -->
  <!-- Lines connect stars that are "nearby" and bright (contribution count >= 2) -->
  <!-- Orion-like group: top-left -->
  <line x1="72"  y1="130" x2="118" y2="145" stroke="#a5b4fc" stroke-width="0.8" opacity="0.35"/>
  <line x1="118" y1="145" x2="162" y2="128" stroke="#a5b4fc" stroke-width="0.8" opacity="0.35"/>
  <line x1="162" y1="128" x2="145" y2="175" stroke="#a5b4fc" stroke-width="0.8" opacity="0.3"/>
  <line x1="145" y1="175" x2="118" y2="195" stroke="#a5b4fc" stroke-width="0.8" opacity="0.3"/>
  <line x1="118" y1="195" x2="90"  y2="178" stroke="#a5b4fc" stroke-width="0.8" opacity="0.3"/>
  <line x1="90"  y1="178" x2="72"  y2="130" stroke="#a5b4fc" stroke-width="0.8" opacity="0.3"/>
  <!-- Cross -->
  <line x1="118" y1="145" x2="118" y2="195" stroke="#a5b4fc" stroke-width="0.6" opacity="0.2"/>
  <line x1="90"  y1="165" x2="145" y2="165" stroke="#a5b4fc" stroke-width="0.6" opacity="0.2"/>

  <!-- Scorpius-like group: center -->
  <line x1="390" y1="108" x2="432" y2="120" stroke="#c4b5fd" stroke-width="0.9" opacity="0.38"/>
  <line x1="432" y1="120" x2="468" y2="105" stroke="#c4b5fd" stroke-width="0.9" opacity="0.38"/>
  <line x1="468" y1="105" x2="510" y2="128" stroke="#c4b5fd" stroke-width="0.9" opacity="0.35"/>
  <line x1="510" y1="128" x2="545" y2="112" stroke="#c4b5fd" stroke-width="0.9" opacity="0.35"/>
  <line x1="432" y1="120" x2="418" y2="165" stroke="#c4b5fd" stroke-width="0.7" opacity="0.28"/>
  <line x1="418" y1="165" x2="430" y2="205" stroke="#c4b5fd" stroke-width="0.7" opacity="0.25"/>
  <line x1="430" y1="205" x2="455" y2="230" stroke="#c4b5fd" stroke-width="0.7" opacity="0.25"/>
  <line x1="455" y1="230" x2="472" y2="250" stroke="#c4b5fd" stroke-width="0.7" opacity="0.22"/>
  <line x1="472" y1="250" x2="448" y2="265" stroke="#c4b5fd" stroke-width="0.7" opacity="0.22"/>

  <!-- Big Dipper-like group: upper right -->
  <line x1="680" y1="55"  x2="718" y2="62"  stroke="#93c5fd" stroke-width="0.9" opacity="0.4"/>
  <line x1="718" y1="62"  x2="755" y2="58"  stroke="#93c5fd" stroke-width="0.9" opacity="0.4"/>
  <line x1="755" y1="58"  x2="790" y2="48"  stroke="#93c5fd" stroke-width="0.9" opacity="0.4"/>
  <line x1="790" y1="48"  x2="820" y2="70"  stroke="#93c5fd" stroke-width="0.9" opacity="0.38"/>
  <line x1="820" y1="70"  x2="792" y2="88"  stroke="#93c5fd" stroke-width="0.9" opacity="0.38"/>
  <line x1="792" y1="88"  x2="755" y2="80"  stroke="#93c5fd" stroke-width="0.9" opacity="0.35"/>
  <line x1="755" y1="80"  x2="718" y2="62"  stroke="#93c5fd" stroke-width="0.9" opacity="0.35"/>
  <!-- Handle -->
  <line x1="680" y1="55"  x2="650" y2="72"  stroke="#93c5fd" stroke-width="0.7" opacity="0.32"/>
  <line x1="650" y1="72"  x2="622" y2="92"  stroke="#93c5fd" stroke-width="0.7" opacity="0.28"/>
  <line x1="622" y1="92"  x2="600" y2="115" stroke="#93c5fd" stroke-width="0.7" opacity="0.25"/>

  <!-- Small triangle: lower left -->
  <line x1="220" y1="240" x2="258" y2="255" stroke="#f9a8d4" stroke-width="0.8" opacity="0.35"/>
  <line x1="258" y1="255" x2="242" y2="278" stroke="#f9a8d4" stroke-width="0.8" opacity="0.35"/>
  <line x1="242" y1="278" x2="220" y2="240" stroke="#f9a8d4" stroke-width="0.8" opacity="0.35"/>

  <!-- Cross / plus: lower right -->
  <line x1="860" y1="200" x2="895" y2="215" stroke="#fcd34d" stroke-width="0.8" opacity="0.35"/>
  <line x1="895" y1="215" x2="930" y2="205" stroke="#fcd34d" stroke-width="0.8" opacity="0.35"/>
  <line x1="895" y1="180" x2="895" y2="245" stroke="#fcd34d" stroke-width="0.7" opacity="0.28"/>
  <line x1="860" y1="215" x2="930" y2="215" stroke="#fcd34d" stroke-width="0.7" opacity="0.28"/>

  <!-- Extra web lines for density -->
  <line x1="545" y1="112" x2="580" y2="128" stroke="#c4b5fd" stroke-width="0.6" opacity="0.22"/>
  <line x1="580" y1="128" x2="600" y2="115" stroke="#c4b5fd" stroke-width="0.6" opacity="0.22"/>
  <line x1="162" y1="128" x2="220" y2="140" stroke="#a5b4fc" stroke-width="0.6" opacity="0.2"/>
  <line x1="220" y1="140" x2="258" y2="130" stroke="#a5b4fc" stroke-width="0.6" opacity="0.2"/>
  <line x1="258" y1="130" x2="300" y2="148" stroke="#a5b4fc" stroke-width="0.6" opacity="0.2"/>
  <line x1="300" y1="148" x2="340" y2="135" stroke="#a5b4fc" stroke-width="0.6" opacity="0.2"/>
  <line x1="340" y1="135" x2="390" y2="108" stroke="#a5b4fc" stroke-width="0.6" opacity="0.2"/>

  <!-- ── Stars ─────────────────────────────────────────────────────────────  -->

  <!-- Dim stars (count 0–1) — scattered all over -->
  <circle cx="35"  cy="160" r="1.0" fill="#334155" opacity="0.6"/>
  <circle cx="60"  cy="225" r="0.9" fill="#334155" opacity="0.5"/>
  <circle cx="155" cy="215" r="1.0" fill="#475569" opacity="0.55"/>
  <circle cx="200" cy="170" r="0.8" fill="#334155" opacity="0.5"/>
  <circle cx="270" cy="195" r="1.0" fill="#475569" opacity="0.55"/>
  <circle cx="320" cy="220" r="0.9" fill="#334155" opacity="0.5"/>
  <circle cx="360" cy="185" r="1.0" fill="#475569" opacity="0.55"/>
  <circle cx="485" cy="165" r="0.9" fill="#334155" opacity="0.5"/>
  <circle cx="560" cy="195" r="1.0" fill="#475569" opacity="0.55"/>
  <circle cx="610" cy="170" r="0.8" fill="#334155" opacity="0.5"/>
  <circle cx="640" cy="225" r="1.0" fill="#475569" opacity="0.55"/>
  <circle cx="720" cy="210" r="0.9" fill="#334155" opacity="0.5"/>
  <circle cx="770" cy="185" r="1.0" fill="#475569" opacity="0.55"/>
  <circle cx="800" cy="230" r="0.8" fill="#334155" opacity="0.5"/>
  <circle cx="840" cy="170" r="1.0" fill="#475569" opacity="0.55"/>
  <circle cx="960" cy="200" r="0.9" fill="#334155" opacity="0.5"/>
  <circle cx="975" cy="260" r="1.0" fill="#475569" opacity="0.55"/>

  <!-- Medium stars (count 2–4) — blue/teal tones -->
  <circle cx="72"  cy="130" r="2.2" fill="#93c5fd" opacity="0.75" filter="url(#starGlow)"/>
  <circle cx="118" cy="145" r="2.8" fill="#a5b4fc" opacity="0.8"  filter="url(#starGlow)"/>
  <circle cx="162" cy="128" r="2.4" fill="#93c5fd" opacity="0.75" filter="url(#starGlow)"/>
  <circle cx="145" cy="175" r="2.0" fill="#7dd3fc" opacity="0.7"  filter="url(#starGlow)"/>
  <circle cx="118" cy="195" r="2.2" fill="#93c5fd" opacity="0.75" filter="url(#starGlow)"/>
  <circle cx="90"  cy="178" r="2.0" fill="#a5b4fc" opacity="0.7"  filter="url(#starGlow)"/>
  <circle cx="220" cy="140" r="1.8" fill="#7dd3fc" opacity="0.65" filter="url(#starGlow)"/>
  <circle cx="258" cy="130" r="2.0" fill="#93c5fd" opacity="0.7"  filter="url(#starGlow)"/>
  <circle cx="300" cy="148" r="1.8" fill="#a5b4fc" opacity="0.65" filter="url(#starGlow)"/>
  <circle cx="340" cy="135" r="2.2" fill="#7dd3fc" opacity="0.7"  filter="url(#starGlow)"/>
  <circle cx="390" cy="108" r="2.4" fill="#c4b5fd" opacity="0.8"  filter="url(#starGlow)"/>
  <circle cx="432" cy="120" r="2.8" fill="#a78bfa" opacity="0.82" filter="url(#starGlow)"/>
  <circle cx="418" cy="165" r="2.0" fill="#c4b5fd" opacity="0.7"  filter="url(#starGlow)"/>
  <circle cx="430" cy="205" r="1.8" fill="#a78bfa" opacity="0.65" filter="url(#starGlow)"/>
  <circle cx="455" cy="230" r="2.0" fill="#c4b5fd" opacity="0.7"  filter="url(#starGlow)"/>
  <circle cx="472" cy="250" r="2.2" fill="#a78bfa" opacity="0.75" filter="url(#starGlow)"/>
  <circle cx="448" cy="265" r="2.0" fill="#c4b5fd" opacity="0.7"  filter="url(#starGlow)"/>
  <circle cx="510" cy="128" r="2.2" fill="#c4b5fd" opacity="0.75" filter="url(#starGlow)"/>
  <circle cx="545" cy="112" r="2.4" fill="#a78bfa" opacity="0.8"  filter="url(#starGlow)"/>
  <circle cx="580" cy="128" r="2.0" fill="#c4b5fd" opacity="0.7"  filter="url(#starGlow)"/>
  <circle cx="600" cy="115" r="2.2" fill="#a78bfa" opacity="0.75" filter="url(#starGlow)"/>
  <circle cx="622" cy="92"  r="2.4" fill="#93c5fd" opacity="0.78" filter="url(#starGlow)"/>
  <circle cx="650" cy="72"  r="2.8" fill="#7dd3fc" opacity="0.8"  filter="url(#starGlow)"/>
  <circle cx="755" cy="80"  r="2.4" fill="#93c5fd" opacity="0.78" filter="url(#starGlow)"/>
  <circle cx="792" cy="88"  r="2.2" fill="#7dd3fc" opacity="0.75" filter="url(#starGlow)"/>
  <circle cx="220" cy="240" r="2.2" fill="#f9a8d4" opacity="0.75" filter="url(#starGlow)"/>
  <circle cx="258" cy="255" r="2.0" fill="#fda4af" opacity="0.7"  filter="url(#starGlow)"/>
  <circle cx="242" cy="278" r="2.2" fill="#f9a8d4" opacity="0.75" filter="url(#starGlow)"/>
  <circle cx="860" cy="200" r="2.2" fill="#fcd34d" opacity="0.75" filter="url(#starGlow)"/>
  <circle cx="930" cy="205" r="2.0" fill="#fde68a" opacity="0.7"  filter="url(#starGlow)"/>
  <circle cx="860" cy="215" r="1.8" fill="#fcd34d" opacity="0.68" filter="url(#starGlow)"/>
  <circle cx="930" cy="215" r="2.0" fill="#fde68a" opacity="0.7"  filter="url(#starGlow)"/>

  <!-- Bright stars (count 5–9) -->
  <circle cx="468" cy="105" r="3.5" fill="white" opacity="0.92" filter="url(#brightGlow)"/>
  <!-- spike -->
  <line x1="468" y1="96"  x2="468" y2="114" stroke="white" stroke-width="0.6" opacity="0.5"/>
  <line x1="459" y1="105" x2="477" y2="105" stroke="white" stroke-width="0.6" opacity="0.5"/>

  <circle cx="680" cy="55"  r="3.8" fill="white" opacity="0.94" filter="url(#brightGlow)"/>
  <line x1="680" y1="44"  x2="680" y2="66"  stroke="white" stroke-width="0.6" opacity="0.5"/>
  <line x1="669" y1="55"  x2="691" y2="55"  stroke="white" stroke-width="0.6" opacity="0.5"/>

  <circle cx="718" cy="62"  r="3.4" fill="#d1fae5" opacity="0.9"  filter="url(#brightGlow)"/>
  <circle cx="755" cy="58"  r="3.6" fill="white"   opacity="0.92" filter="url(#brightGlow)"/>
  <circle cx="790" cy="48"  r="3.2" fill="#cce5ff"  opacity="0.9"  filter="url(#brightGlow)"/>
  <circle cx="820" cy="70"  r="3.8" fill="white"   opacity="0.94" filter="url(#brightGlow)"/>
  <line x1="820" y1="58"  x2="820" y2="82"  stroke="white" stroke-width="0.6" opacity="0.5"/>
  <line x1="808" y1="70"  x2="832" y2="70"  stroke="white" stroke-width="0.6" opacity="0.5"/>

  <circle cx="895" cy="215" r="3.4" fill="#fde68a" opacity="0.9"  filter="url(#brightGlow)"/>
  <line x1="895" y1="204" x2="895" y2="226" stroke="#fde68a" stroke-width="0.6" opacity="0.5"/>
  <line x1="884" y1="215" x2="906" y2="215" stroke="#fde68a" stroke-width="0.6" opacity="0.5"/>

  <!-- Very bright / mega stars (count 10+) -->
  <circle cx="895" cy="180" r="5.5" fill="white" opacity="0.97" filter="url(#megaGlow)"/>
  <line x1="895" y1="165" x2="895" y2="195" stroke="white" stroke-width="0.8" opacity="0.6"/>
  <line x1="880" y1="180" x2="910" y2="180" stroke="white" stroke-width="0.8" opacity="0.6"/>
  <line x1="885" y1="170" x2="905" y2="190" stroke="white" stroke-width="0.5" opacity="0.35"/>
  <line x1="905" y1="170" x2="885" y2="190" stroke="white" stroke-width="0.5" opacity="0.35"/>

  <circle cx="530" cy="110" r="6.0" fill="white" opacity="0.98" filter="url(#megaGlow)"/>
  <line x1="530" y1="93"  x2="530" y2="127" stroke="white" stroke-width="0.9" opacity="0.65"/>
  <line x1="513" y1="110" x2="547" y2="110" stroke="white" stroke-width="0.9" opacity="0.65"/>
  <line x1="518" y1="98"  x2="542" y2="122" stroke="white" stroke-width="0.5" opacity="0.35"/>
  <line x1="542" y1="98"  x2="518" y2="122" stroke="white" stroke-width="0.5" opacity="0.35"/>

  <!-- The "North Star" equivalent — featured bright anchor -->
  <circle cx="310" cy="55" r="7.0" fill="white" opacity="1.0" filter="url(#megaGlow)"/>
  <line x1="310" y1="34"  x2="310" y2="76"  stroke="white" stroke-width="1.0" opacity="0.7"/>
  <line x1="289" y1="55"  x2="331" y2="55"  stroke="white" stroke-width="1.0" opacity="0.7"/>
  <line x1="295" y1="40"  x2="325" y2="70"  stroke="white" stroke-width="0.6" opacity="0.4"/>
  <line x1="325" y1="40"  x2="295" y2="70"  stroke="white" stroke-width="0.6" opacity="0.4"/>
  <!-- Outer glow ring -->
  <circle cx="310" cy="55" r="14" fill="none" stroke="white" stroke-width="0.4" opacity="0.15"/>
  <circle cx="310" cy="55" r="22" fill="none" stroke="white" stroke-width="0.3" opacity="0.08"/>

  <!-- Connection from North Star to nearby group -->
  <line x1="310" y1="55"  x2="390" y2="108" stroke="#e0e7ff" stroke-width="0.8" opacity="0.22"/>
  <line x1="310" y1="55"  x2="258" y2="130" stroke="#e0e7ff" stroke-width="0.8" opacity="0.18"/>
  <line x1="310" y1="55"  x2="340" y2="135" stroke="#e0e7ff" stroke-width="0.7" opacity="0.18"/>
  <line x1="310" y1="55"  x2="262" y2="8"   stroke="#e0e7ff" stroke-width="0.5" opacity="0.14"/>
</svg>
