<svg xmlns="http://www.w3.org/2000/svg" viewBox="0 0 1000 200" width="1000" height="200">
<defs>
<linearGradient id="waveGrad" x1="0" y1="0" x2="1" y2="0">
  <stop offset="0%" stop-color="#06b6d4"/>
  <stop offset="35%" stop-color="#8b5cf6"/>
  <stop offset="70%" stop-color="#ec4899"/>
  <stop offset="100%" stop-color="#f59e0b"/>
</linearGradient>
<linearGradient id="bgGrad" x1="0" y1="0" x2="0" y2="1">
  <stop offset="0%" stop-color="#020617"/>
  <stop offset="100%" stop-color="#0f172a"/>
</linearGradient>
<filter id="wglow">
  <feGaussianBlur stdDeviation="4" result="blur"/>
  <feMerge><feMergeNode in="blur"/><feMergeNode in="SourceGraphic"/></feMerge>
</filter>
</defs>
<rect width="1000" height="200" fill="url(#bgGrad)"/>
<path d="M 0.0,100.0 Q 1.4,100.0 2.7,100.0 Q 4.1,100.0 5.5,100.0 Q 6.8,100.0 8.2,100.0 Q 9.6,100.0 11.0,100.0 Q 12.3,100.0 13.7,100.0 Q 15.1,100.0 16.4,100.0 Q 17.8,100.0 19.2,100.0 Q 20.5,100.0 21.9,100.0 Q 23.3,100.0 24.7,100.0 Q 26.0,100.0 27.4,100.0 Q 28.8,100.0 30.1,100.0 Q 31.5,100.0 32.9,100.0 Q 34.2,100.0 35.6,100.0 Q 37.0,100.0 38.4,100.0 Q 39.7,100.0 41.1,100.0 Q 42.5,100.0 43.8,100.0 Q 45.2,100.0 46.6,100.0 Q 47.9,100.0 49.3,100.0 Q 50.7,100.0 52.1,100.0 Q 53.4,100.0 54.8,100.0 Q 56.2,100.0 57.5,100.0 Q 58.9,100.0 60.3,100.0 Q 61.6,100.0 63.0,100.0 Q 64.4,100.0 65.8,100.0 Q 67.1,100.0 68.5,100.0 Q 69.9,100.0 71.2,100.0 Q 72.6,100.0 74.0,100.0 Q 75.3,100.0 76.7,100.0 Q 78.1,100.0 79.5,100.0 Q 80.8,100.0 82.2,100.0 Q 83.6,100.0 84.9,100.0 Q 86.3,100.0 87.7,100.0 Q 89.0,100.0 90.4,100.0 Q 91.8,100.0 93.2,100.0 Q 94.5,100.0 95.9,100.0 Q 97.3,100.0 98.6,100.0 Q 100.0,100.0 101.4,100.0 Q 102.7,100.0 104.1,100.0 Q 105.5,100.0 106.8,100.0 Q 108.2,100.0 109.6,100.0 Q 111.0,100.0 112.3,100.0 Q 113.7,100.0 115.1,100.0 Q 116.4,100.0 117.8,100.0 Q 119.2,100.0 120.5,100.0 Q 121.9,100.0 123.3,100.0 Q 124.7,100.0 126.0,100.0 Q 127.4,100.0 128.8,100.0 Q 130.1,100.0 131.5,100.0 Q 132.9,100.0 134.2,100.0 Q 135.6,100.0 137.0,100.0 Q 138.4,100.0 139.7,100.0 Q 141.1,100.0 142.5,100.0 Q 143.8,100.0 145.2,100.0 Q 146.6,100.0 147.9,100.0 Q 149.3,100.0 150.7,100.0 Q 152.1,100.0 153.4,100.0 Q 154.8,100.0 156.2,100.0 Q 157.5,100.0 158.9,100.0 Q 160.3,100.0 161.6,100.0 Q 163.0,100.0 164.4,100.0 Q 165.8,100.0 167.1,100.0 Q 168.5,100.0 169.9,100.0 Q 171.2,100.0 172.6,100.0 Q 174.0,100.0 175.3,100.0 Q 176.7,100.0 178.1,100.0 Q 179.5,100.0 180.8,100.0 Q 182.2,100.0 183.6,100.0 Q 184.9,100.0 186.3,100.0 Q 187.7,100.0 189.0,100.0 Q 190.4,100.0 191.8,100.0 Q 193.2,100.0 194.5,100.0 Q 195.9,100.0 197.3,100.0 Q 198.6,100.0 200.0,100.0 Q 201.4,100.0 202.7,100.0 Q 204.1,100.0 205.5,100.0 Q 206.8,100.0 208.2,100.0 Q 209.6,100.0 211.0,100.0 Q 212.3,100.0 213.7,100.0 Q 215.1,100.0 216.4,100.0 Q 217.8,100.0 219.2,100.0 Q 220.5,100.0 221.9,100.0 Q 223.3,100.0 224.7,100.0 Q 226.0,100.0 227.4,100.0 Q 228.8,100.0 230.1,100.0 Q 231.5,100.0 232.9,100.0 Q 234.2,100.0 235.6,100.0 Q 237.0,100.0 238.4,100.0 Q 239.7,100.0 241.1,100.0 Q 242.5,100.0 243.8,100.0 Q 245.2,100.0 246.6,100.0 Q 247.9,100.0 249.3,100.0 Q 250.7,100.0 252.1,100.0 Q 253.4,100.0 254.8,100.0 Q 256.2,100.0 257.5,100.0 Q 258.9,100.0 260.3,100.0 Q 261.6,100.0 263.0,100.0 Q 264.4,100.0 265.8,100.0 Q 267.1,100.0 268.5,100.0 Q 269.9,100.0 271.2,100.0 Q 272.6,100.0 274.0,100.0 Q 275.3,100.0 276.7,100.0 Q 278.1,100.0 279.5,100.0 Q 280.8,100.0 282.2,100.0 Q 283.6,100.0 284.9,100.0 Q 286.3,100.0 287.7,100.0 Q 289.0,100.0 290.4,100.0 Q 291.8,100.0 293.2,100.0 Q 294.5,100.0 295.9,100.0 Q 297.3,100.0 298.6,100.0 Q 300.0,100.0 301.4,100.0 Q 302.7,100.0 304.1,100.0 Q 305.5,100.0 306.8,100.0 Q 308.2,100.0 309.6,100.0 Q 311.0,100.0 312.3,100.0 Q 313.7,100.0 315.1,100.0 Q 316.4,100.0 317.8,100.0 Q 319.2,100.0 320.5,100.0 Q 321.9,100.0 323.3,100.0 Q 324.7,100.0 326.0,98.3 Q 327.4,98.3 328.8,98.3 Q 330.1,98.3 331.5,97.9 Q 332.9,97.9 334.2,97.9 Q 335.6,97.9 337.0,97.9 Q 338.4,97.9 339.7,97.9 Q 341.1,97.9 342.5,97.9 Q 343.8,97.9 345.2,97.9 Q 346.6,97.9 347.9,97.9 Q 349.3,97.9 350.7,97.9 Q 352.1,97.9 353.4,97.9 Q 354.8,97.9 356.2,97.9 Q 357.5,97.9 358.9,97.9 Q 360.3,97.9 361.6,99.7 Q 363.0,99.7 364.4,99.7 Q 365.8,99.7 367.1,100.0 Q 368.5,100.0 369.9,100.0 Q 371.2,100.0 372.6,100.0 Q 374.0,100.0 375.3,100.0 Q 376.7,100.0 378.1,100.0 Q 379.5,100.0 380.8,100.0 Q 382.2,100.0 383.6,100.0 Q 384.9,100.0 386.3,100.0 Q 387.7,100.0 389.0,100.0 Q 390.4,100.0 391.8,100.0 Q 393.2,100.0 394.5,100.0 Q 395.9,100.0 397.3,100.0 Q 398.6,100.0 400.0,100.0 Q 401.4,100.0 402.7,100.0 Q 404.1,100.0 405.5,100.0 Q 406.8,100.0 408.2,100.0 Q 409.6,100.0 411.0,100.0 Q 412.3,100.0 413.7,100.0 Q 415.1,100.0 416.4,100.0 Q 417.8,100.0 419.2,100.0 Q 420.5,100.0 421.9,100.0 Q 423.3,100.0 424.7,100.0 Q 426.0,100.0 427.4,100.0 Q 428.8,100.0 430.1,100.0 Q 431.5,100.0 432.9,100.0 Q 434.2,100.0 435.6,100.0 Q 437.0,100.0 438.4,100.0 Q 439.7,100.0 441.1,100.0 Q 442.5,100.0 443.8,100.0 Q 445.2,100.0 446.6,100.0 Q 447.9,100.0 449.3,97.9 Q 450.7,97.9 452.1,96.2 Q 453.4,96.2 454.8,96.2 Q 456.2,96.2 457.5,96.2 Q 458.9,96.2 460.3,96.2 Q 461.6,96.2 463.0,96.2 Q 464.4,96.2 465.8,96.2 Q 467.1,96.2 468.5,96.2 Q 469.9,96.2 471.2,96.2 Q 472.6,96.2 474.0,96.2 Q 475.3,96.2 476.7,96.2 Q 478.1,96.2 479.5,96.2 Q 480.8,96.2 482.2,96.2 Q 483.6,96.2 484.9,98.3 Q 486.3,98.3 487.7,100.0 Q 489.0,100.0 490.4,100.0 Q 491.8,100.0 493.2,100.0 Q 494.5,100.0 495.9,100.0 Q 497.3,100.0 498.6,100.0 Q 500.0,100.0 501.4,100.0 Q 502.7,100.0 504.1,100.0 Q 505.5,100.0 506.8,100.0 Q 508.2,100.0 509.6,100.0 Q 511.0,100.0 512.3,100.0 Q 513.7,100.0 515.1,100.0 Q 516.4,100.0 517.8,100.0 Q 519.2,100.0 520.5,100.0 Q 521.9,100.0 523.3,100.0 Q 524.7,100.0 526.0,100.0 Q 527.4,100.0 528.8,100.0 Q 530.1,100.0 531.5,100.0 Q 532.9,100.0 534.2,100.0 Q 535.6,100.0 537.0,100.0 Q 538.4,100.0 539.7,100.0 Q 541.1,100.0 542.5,100.0 Q 543.8,100.0 545.2,100.0 Q 546.6,100.0 547.9,100.0 Q 549.3,100.0 550.7,100.0 Q 552.1,100.0 553.4,100.0 Q 554.8,100.0 556.2,100.0 Q 557.5,100.0 558.9,100.0 Q 560.3,100.0 561.6,100.0 Q 563.0,100.0 564.4,100.0 Q 565.8,100.0 567.1,100.0 Q 568.5,100.0 569.9,99.8 Q 571.2,99.8 572.6,99.8 Q 574.0,99.8 575.3,99.8 Q 576.7,99.8 578.1,99.7 Q 579.5,99.7 580.8,99.7 Q 582.2,99.7 583.6,99.7 Q 584.9,99.7 586.3,99.7 Q 587.7,99.7 589.0,99.7 Q 590.4,99.7 591.8,99.7 Q 593.2,99.7 594.5,99.7 Q 595.9,99.7 597.3,99.7 Q 598.6,99.7 600.0,99.7 Q 601.4,99.7 602.7,99.7 Q 604.1,99.7 605.5,99.8 Q 606.8,99.8 608.2,99.8 Q 609.6,99.8 611.0,99.8 Q 612.3,99.8 613.7,100.0 Q 615.1,100.0 616.4,100.0 Q 617.8,100.0 619.2,100.0 Q 620.5,100.0 621.9,100.0 Q 623.3,100.0 624.7,100.0 Q 626.0,100.0 627.4,100.0 Q 628.8,100.0 630.1,100.0 Q 631.5,100.0 632.9,99.8 Q 634.2,99.8 635.6,99.8 Q 637.0,99.8 638.4,99.8 Q 639.7,99.8 641.1,99.8 Q 642.5,99.8 643.8,99.8 Q 645.2,99.8 646.6,99.8 Q 647.9,99.8 649.3,99.8 Q 650.7,99.8 652.1,99.3 Q 653.4,99.3 654.8,97.8 Q 656.2,97.8 657.5,97.6 Q 658.9,97.6 660.3,97.6 Q 661.6,97.6 663.0,97.6 Q 664.4,97.6 665.8,97.6 Q 667.1,97.6 668.5,97.8 Q 669.9,97.8 671.2,97.8 Q 672.6,97.8 674.0,97.4 Q 675.3,97.4 676.7,95.3 Q 678.1,95.3 679.5,95.3 Q 680.8,95.3 682.2,95.3 Q 683.6,95.3 684.9,95.3 Q 686.3,95.3 687.7,95.8 Q 689.0,95.8 690.4,97.4 Q 691.8,97.4 693.2,97.6 Q 694.5,97.6 695.9,97.6 Q 697.3,97.6 698.6,97.6 Q 700.0,97.6 701.4,97.6 Q 702.7,97.6 704.1,97.6 Q 705.5,97.6 706.8,97.6 Q 708.2,97.6 709.6,97.9 Q 711.0,97.9 712.3,100.0 Q 713.7,100.0 715.1,100.0 Q 716.4,100.0 717.8,100.0 Q 719.2,100.0 720.5,100.0 Q 721.9,100.0 723.3,99.5 Q 724.7,99.5 726.0,99.5 Q 727.4,99.5 728.8,99.5 Q 730.1,99.5 731.5,99.5 Q 732.9,99.5 734.2,99.5 Q 735.6,99.5 737.0,99.5 Q 738.4,99.5 739.7,99.5 Q 741.1,99.5 742.5,99.5 Q 743.8,99.5 745.2,99.5 Q 746.6,99.5 747.9,99.5 Q 749.3,99.5 750.7,99.5 Q 752.1,99.5 753.4,99.5 Q 754.8,99.5 756.2,99.5 Q 757.5,99.5 758.9,100.0 Q 760.3,100.0 761.6,100.0 Q 763.0,100.0 764.4,100.0 Q 765.8,100.0 767.1,100.0 Q 768.5,100.0 769.9,100.0 Q 771.2,100.0 772.6,100.0 Q 774.0,100.0 775.3,100.0 Q 776.7,100.0 778.1,100.0 Q 779.5,100.0 780.8,99.5 Q 782.2,99.5 783.6,99.5 Q 784.9,99.5 786.3,99.3 Q 787.7,99.3 789.0,99.3 Q 790.4,99.3 791.8,99.3 Q 793.2,99.3 794.5,99.3 Q 795.9,99.3 797.3,99.3 Q 798.6,99.3 800.0,99.3 Q 801.4,99.3 802.7,99.3 Q 804.1,99.3 805.5,99.3 Q 806.8,99.3 808.2,99.3 Q 809.6,99.3 811.0,99.3 Q 812.3,99.3 813.7,99.3 Q 815.1,99.3 816.4,99.8 Q 817.8,99.8 819.2,99.8 Q 820.5,99.8 821.9,100.0 Q 823.3,100.0 824.7,100.0 Q 826.0,100.0 827.4,100.0 Q 828.8,100.0 830.1,99.5 Q 831.5,99.5 832.9,99.1 Q 834.2,99.1 835.6,99.1 Q 837.0,99.1 838.4,99.1 Q 839.7,99.1 841.1,99.1 Q 842.5,99.1 843.8,99.1 Q 845.2,99.1 846.6,98.1 Q 847.9,98.1 849.3,95.5 Q 850.7,95.5 852.1,94.6 Q 853.4,94.6 854.8,92.2 Q 856.2,92.2 857.5,92.0 Q 858.9,92.0 860.3,92.0 Q 861.6,92.0 863.0,92.0 Q 864.4,92.0 865.8,92.6 Q 867.1,92.6 868.5,92.9 Q 869.9,92.9 871.2,92.9 Q 872.6,92.9 874.0,92.9 Q 875.3,92.9 876.7,89.3 Q 878.1,89.3 879.5,89.3 Q 880.8,89.3 882.2,90.3 Q 883.6,90.3 884.9,92.9 Q 886.3,92.9 887.7,93.8 Q 889.0,93.8 890.4,96.2 Q 891.8,96.2 893.2,96.4 Q 894.5,96.4 895.9,96.4 Q 897.3,96.4 898.6,96.4 Q 900.0,96.4 901.4,96.4 Q 902.7,96.4 904.1,96.4 Q 905.5,96.4 906.8,96.4 Q 908.2,96.4 909.6,96.4 Q 911.0,96.4 912.3,100.0 Q 913.7,100.0 915.1,100.0 Q 916.4,100.0 917.8,100.0 Q 919.2,100.0 920.5,100.0 Q 921.9,100.0 923.3,100.0 Q 924.7,100.0 926.0,100.0 Q 927.4,100.0 928.8,100.0 Q 930.1,100.0 931.5,100.0 Q 932.9,100.0 934.2,100.0 Q 935.6,100.0 937.0,100.0 Q 938.4,100.0 939.7,100.0 Q 941.1,100.0 942.5,100.0 Q 943.8,100.0 945.2,100.0 Q 946.6,100.0 947.9,99.7 Q 949.3,99.7 950.7,99.7 Q 952.1,99.7 953.4,99.7 Q 954.8,99.7 956.2,99.7 Q 957.5,99.7 958.9,99.7 Q 960.3,99.7 961.6,99.7 Q 963.0,99.7 964.4,99.7 Q 965.8,99.7 967.1,99.7 Q 968.5,99.7 969.9,99.7 Q 971.2,99.7 972.6,93.4 Q 974.0,93.4 975.3,92.6 Q 976.7,92.6 978.1,92.4 Q 979.5,92.4 980.8,85.5 Q 982.2,85.5 983.6,82.7 Q 984.9,82.7 986.3,81.2 Q 987.7,81.2 989.0,79.5 Q 990.4,79.5 991.8,77.5 Q 993.2,77.5 994.5,75.0 Q 995.9,75.0 997.3,71.9 Q 998.6,71.9 1000.0,67.9 L 1000.0,132.1 Q 998.6,132.1 997.3,128.1 Q 995.9,128.1 994.5,125.0 Q 993.2,125.0 991.8,122.5 Q 990.4,122.5 989.0,120.5 Q 987.7,120.5 986.3,118.8 Q 984.9,118.8 983.6,117.3 Q 982.2,117.3 980.8,114.5 Q 979.5,114.5 978.1,107.6 Q 976.7,107.6 975.3,107.4 Q 974.0,107.4 972.6,106.6 Q 971.2,106.6 969.9,100.3 Q 968.5,100.3 967.1,100.3 Q 965.8,100.3 964.4,100.3 Q 963.0,100.3 961.6,100.3 Q 960.3,100.3 958.9,100.3 Q 957.5,100.3 956.2,100.3 Q 954.8,100.3 953.4,100.3 Q 952.1,100.3 950.7,100.3 Q 949.3,100.3 947.9,100.3 Q 946.6,100.3 945.2,100.0 Q 943.8,100.0 942.5,100.0 Q 941.1,100.0 939.7,100.0 Q 938.4,100.0 937.0,100.0 Q 935.6,100.0 934.2,100.0 Q 932.9,100.0 931.5,100.0 Q 930.1,100.0 928.8,100.0 Q 927.4,100.0 926.0,100.0 Q 924.7,100.0 923.3,100.0 Q 921.9,100.0 920.5,100.0 Q 919.2,100.0 917.8,100.0 Q 916.4,100.0 915.1,100.0 Q 913.7,100.0 912.3,100.0 Q 911.0,100.0 909.6,103.6 Q 908.2,103.6 906.8,103.6 Q 905.5,103.6 904.1,103.6 Q 902.7,103.6 901.4,103.6 Q 900.0,103.6 898.6,103.6 Q 897.3,103.6 895.9,103.6 Q 894.5,103.6 893.2,103.6 Q 891.8,103.6 890.4,103.8 Q 889.0,103.8 887.7,106.2 Q 886.3,106.2 884.9,107.1 Q 883.6,107.1 882.2,109.7 Q 880.8,109.7 879.5,110.7 Q 878.1,110.7 876.7,110.7 Q 875.3,110.7 874.0,107.1 Q 872.6,107.1 871.2,107.1 Q 869.9,107.1 868.5,107.1 Q 867.1,107.1 865.8,107.4 Q 864.4,107.4 863.0,108.0 Q 861.6,108.0 860.3,108.0 Q 858.9,108.0 857.5,108.0 Q 856.2,108.0 854.8,107.8 Q 853.4,107.8 852.1,105.4 Q 850.7,105.4 849.3,104.5 Q 847.9,104.5 846.6,101.9 Q 845.2,101.9 843.8,100.9 Q 842.5,100.9 841.1,100.9 Q 839.7,100.9 838.4,100.9 Q 837.0,100.9 835.6,100.9 Q 834.2,100.9 832.9,100.9 Q 831.5,100.9 830.1,100.5 Q 828.8,100.5 827.4,100.0 Q 826.0,100.0 824.7,100.0 Q 823.3,100.0 821.9,100.0 Q 820.5,100.0 819.2,100.2 Q 817.8,100.2 816.4,100.2 Q 815.1,100.2 813.7,100.7 Q 812.3,100.7 811.0,100.7 Q 809.6,100.7 808.2,100.7 Q 806.8,100.7 805.5,100.7 Q 804.1,100.7 802.7,100.7 Q 801.4,100.7 800.0,100.7 Q 798.6,100.7 797.3,100.7 Q 795.9,100.7 794.5,100.7 Q 793.2,100.7 791.8,100.7 Q 790.4,100.7 789.0,100.7 Q 787.7,100.7 786.3,100.7 Q 784.9,100.7 783.6,100.5 Q 782.2,100.5 780.8,100.5 Q 779.5,100.5 778.1,100.0 Q 776.7,100.0 775.3,100.0 Q 774.0,100.0 772.6,100.0 Q 771.2,100.0 769.9,100.0 Q 768.5,100.0 767.1,100.0 Q 765.8,100.0 764.4,100.0 Q 763.0,100.0 761.6,100.0 Q 760.3,100.0 758.9,100.0 Q 757.5,100.0 756.2,100.5 Q 754.8,100.5 753.4,100.5 Q 752.1,100.5 750.7,100.5 Q 749.3,100.5 747.9,100.5 Q 746.6,100.5 745.2,100.5 Q 743.8,100.5 742.5,100.5 Q 741.1,100.5 739.7,100.5 Q 738.4,100.5 737.0,100.5 Q 735.6,100.5 734.2,100.5 Q 732.9,100.5 731.5,100.5 Q 730.1,100.5 728.8,100.5 Q 727.4,100.5 726.0,100.5 Q 724.7,100.5 723.3,100.5 Q 721.9,100.5 720.5,100.0 Q 719.2,100.0 717.8,100.0 Q 716.4,100.0 715.1,100.0 Q 713.7,100.0 712.3,100.0 Q 711.0,100.0 709.6,102.1 Q 708.2,102.1 706.8,102.4 Q 705.5,102.4 704.1,102.4 Q 702.7,102.4 701.4,102.4 Q 700.0,102.4 698.6,102.4 Q 697.3,102.4 695.9,102.4 Q 694.5,102.4 693.2,102.4 Q 691.8,102.4 690.4,102.6 Q 689.0,102.6 687.7,104.2 Q 686.3,104.2 684.9,104.7 Q 683.6,104.7 682.2,104.7 Q 680.8,104.7 679.5,104.7 Q 678.1,104.7 676.7,104.7 Q 675.3,104.7 674.0,102.6 Q 672.6,102.6 671.2,102.2 Q 669.9,102.2 668.5,102.2 Q 667.1,102.2 665.8,102.4 Q 664.4,102.4 663.0,102.4 Q 661.6,102.4 660.3,102.4 Q 658.9,102.4 657.5,102.4 Q 656.2,102.4 654.8,102.2 Q 653.4,102.2 652.1,100.7 Q 650.7,100.7 649.3,100.2 Q 647.9,100.2 646.6,100.2 Q 645.2,100.2 643.8,100.2 Q 642.5,100.2 641.1,100.2 Q 639.7,100.2 638.4,100.2 Q 637.0,100.2 635.6,100.2 Q 634.2,100.2 632.9,100.2 Q 631.5,100.2 630.1,100.0 Q 628.8,100.0 627.4,100.0 Q 626.0,100.0 624.7,100.0 Q 623.3,100.0 621.9,100.0 Q 620.5,100.0 619.2,100.0 Q 617.8,100.0 616.4,100.0 Q 615.1,100.0 613.7,100.0 Q 612.3,100.0 611.0,100.2 Q 609.6,100.2 608.2,100.2 Q 606.8,100.2 605.5,100.2 Q 604.1,100.2 602.7,100.3 Q 601.4,100.3 600.0,100.3 Q 598.6,100.3 597.3,100.3 Q 595.9,100.3 594.5,100.3 Q 593.2,100.3 591.8,100.3 Q 590.4,100.3 589.0,100.3 Q 587.7,100.3 586.3,100.3 Q 584.9,100.3 583.6,100.3 Q 582.2,100.3 580.8,100.3 Q 579.5,100.3 578.1,100.3 Q 576.7,100.3 575.3,100.2 Q 574.0,100.2 572.6,100.2 Q 571.2,100.2 569.9,100.2 Q 568.5,100.2 567.1,100.0 Q 565.8,100.0 564.4,100.0 Q 563.0,100.0 561.6,100.0 Q 560.3,100.0 558.9,100.0 Q 557.5,100.0 556.2,100.0 Q 554.8,100.0 553.4,100.0 Q 552.1,100.0 550.7,100.0 Q 549.3,100.0 547.9,100.0 Q 546.6,100.0 545.2,100.0 Q 543.8,100.0 542.5,100.0 Q 541.1,100.0 539.7,100.0 Q 538.4,100.0 537.0,100.0 Q 535.6,100.0 534.2,100.0 Q 532.9,100.0 531.5,100.0 Q 530.1,100.0 528.8,100.0 Q 527.4,100.0 526.0,100.0 Q 524.7,100.0 523.3,100.0 Q 521.9,100.0 520.5,100.0 Q 519.2,100.0 517.8,100.0 Q 516.4,100.0 515.1,100.0 Q 513.7,100.0 512.3,100.0 Q 511.0,100.0 509.6,100.0 Q 508.2,100.0 506.8,100.0 Q 505.5,100.0 504.1,100.0 Q 502.7,100.0 501.4,100.0 Q 500.0,100.0 498.6,100.0 Q 497.3,100.0 495.9,100.0 Q 494.5,100.0 493.2,100.0 Q 491.8,100.0 490.4,100.0 Q 489.0,100.0 487.7,100.0 Q 486.3,100.0 484.9,101.7 Q 483.6,101.7 482.2,103.8 Q 480.8,103.8 479.5,103.8 Q 478.1,103.8 476.7,103.8 Q 475.3,103.8 474.0,103.8 Q 472.6,103.8 471.2,103.8 Q 469.9,103.8 468.5,103.8 Q 467.1,103.8 465.8,103.8 Q 464.4,103.8 463.0,103.8 Q 461.6,103.8 460.3,103.8 Q 458.9,103.8 457.5,103.8 Q 456.2,103.8 454.8,103.8 Q 453.4,103.8 452.1,103.8 Q 450.7,103.8 449.3,102.1 Q 447.9,102.1 446.6,100.0 Q 445.2,100.0 443.8,100.0 Q 442.5,100.0 441.1,100.0 Q 439.7,100.0 438.4,100.0 Q 437.0,100.0 435.6,100.0 Q 434.2,100.0 432.9,100.0 Q 431.5,100.0 430.1,100.0 Q 428.8,100.0 427.4,100.0 Q 426.0,100.0 424.7,100.0 Q 423.3,100.0 421.9,100.0 Q 420.5,100.0 419.2,100.0 Q 417.8,100.0 416.4,100.0 Q 415.1,100.0 413.7,100.0 Q 412.3,100.0 411.0,100.0 Q 409.6,100.0 408.2,100.0 Q 406.8,100.0 405.5,100.0 Q 404.1,100.0 402.7,100.0 Q 401.4,100.0 400.0,100.0 Q 398.6,100.0 397.3,100.0 Q 395.9,100.0 394.5,100.0 Q 393.2,100.0 391.8,100.0 Q 390.4,100.0 389.0,100.0 Q 387.7,100.0 386.3,100.0 Q 384.9,100.0 383.6,100.0 Q 382.2,100.0 380.8,100.0 Q 379.5,100.0 378.1,100.0 Q 376.7,100.0 375.3,100.0 Q 374.0,100.0 372.6,100.0 Q 371.2,100.0 369.9,100.0 Q 368.5,100.0 367.1,100.0 Q 365.8,100.0 364.4,100.3 Q 363.0,100.3 361.6,100.3 Q 360.3,100.3 358.9,102.1 Q 357.5,102.1 356.2,102.1 Q 354.8,102.1 353.4,102.1 Q 352.1,102.1 350.7,102.1 Q 349.3,102.1 347.9,102.1 Q 346.6,102.1 345.2,102.1 Q 343.8,102.1 342.5,102.1 Q 341.1,102.1 339.7,102.1 Q 338.4,102.1 337.0,102.1 Q 335.6,102.1 334.2,102.1 Q 332.9,102.1 331.5,102.1 Q 330.1,102.1 328.8,101.7 Q 327.4,101.7 326.0,101.7 Q 324.7,101.7 323.3,100.0 Q 321.9,100.0 320.5,100.0 Q 319.2,100.0 317.8,100.0 Q 316.4,100.0 315.1,100.0 Q 313.7,100.0 312.3,100.0 Q 311.0,100.0 309.6,100.0 Q 308.2,100.0 306.8,100.0 Q 305.5,100.0 304.1,100.0 Q 302.7,100.0 301.4,100.0 Q 300.0,100.0 298.6,100.0 Q 297.3,100.0 295.9,100.0 Q 294.5,100.0 293.2,100.0 Q 291.8,100.0 290.4,100.0 Q 289.0,100.0 287.7,100.0 Q 286.3,100.0 284.9,100.0 Q 283.6,100.0 282.2,100.0 Q 280.8,100.0 279.5,100.0 Q 278.1,100.0 276.7,100.0 Q 275.3,100.0 274.0,100.0 Q 272.6,100.0 271.2,100.0 Q 269.9,100.0 268.5,100.0 Q 267.1,100.0 265.8,100.0 Q 264.4,100.0 263.0,100.0 Q 261.6,100.0 260.3,100.0 Q 258.9,100.0 257.5,100.0 Q 256.2,100.0 254.8,100.0 Q 253.4,100.0 252.1,100.0 Q 250.7,100.0 249.3,100.0 Q 247.9,100.0 246.6,100.0 Q 245.2,100.0 243.8,100.0 Q 242.5,100.0 241.1,100.0 Q 239.7,100.0 238.4,100.0 Q 237.0,100.0 235.6,100.0 Q 234.2,100.0 232.9,100.0 Q 231.5,100.0 230.1,100.0 Q 228.8,100.0 227.4,100.0 Q 226.0,100.0 224.7,100.0 Q 223.3,100.0 221.9,100.0 Q 220.5,100.0 219.2,100.0 Q 217.8,100.0 216.4,100.0 Q 215.1,100.0 213.7,100.0 Q 212.3,100.0 211.0,100.0 Q 209.6,100.0 208.2,100.0 Q 206.8,100.0 205.5,100.0 Q 204.1,100.0 202.7,100.0 Q 201.4,100.0 200.0,100.0 Q 198.6,100.0 197.3,100.0 Q 195.9,100.0 194.5,100.0 Q 193.2,100.0 191.8,100.0 Q 190.4,100.0 189.0,100.0 Q 187.7,100.0 186.3,100.0 Q 184.9,100.0 183.6,100.0 Q 182.2,100.0 180.8,100.0 Q 179.5,100.0 178.1,100.0 Q 176.7,100.0 175.3,100.0 Q 174.0,100.0 172.6,100.0 Q 171.2,100.0 169.9,100.0 Q 168.5,100.0 167.1,100.0 Q 165.8,100.0 164.4,100.0 Q 163.0,100.0 161.6,100.0 Q 160.3,100.0 158.9,100.0 Q 157.5,100.0 156.2,100.0 Q 154.8,100.0 153.4,100.0 Q 152.1,100.0 150.7,100.0 Q 149.3,100.0 147.9,100.0 Q 146.6,100.0 145.2,100.0 Q 143.8,100.0 142.5,100.0 Q 141.1,100.0 139.7,100.0 Q 138.4,100.0 137.0,100.0 Q 135.6,100.0 134.2,100.0 Q 132.9,100.0 131.5,100.0 Q 130.1,100.0 128.8,100.0 Q 127.4,100.0 126.0,100.0 Q 124.7,100.0 123.3,100.0 Q 121.9,100.0 120.5,100.0 Q 119.2,100.0 117.8,100.0 Q 116.4,100.0 115.1,100.0 Q 113.7,100.0 112.3,100.0 Q 111.0,100.0 109.6,100.0 Q 108.2,100.0 106.8,100.0 Q 105.5,100.0 104.1,100.0 Q 102.7,100.0 101.4,100.0 Q 100.0,100.0 98.6,100.0 Q 97.3,100.0 95.9,100.0 Q 94.5,100.0 93.2,100.0 Q 91.8,100.0 90.4,100.0 Q 89.0,100.0 87.7,100.0 Q 86.3,100.0 84.9,100.0 Q 83.6,100.0 82.2,100.0 Q 80.8,100.0 79.5,100.0 Q 78.1,100.0 76.7,100.0 Q 75.3,100.0 74.0,100.0 Q 72.6,100.0 71.2,100.0 Q 69.9,100.0 68.5,100.0 Q 67.1,100.0 65.8,100.0 Q 64.4,100.0 63.0,100.0 Q 61.6,100.0 60.3,100.0 Q 58.9,100.0 57.5,100.0 Q 56.2,100.0 54.8,100.0 Q 53.4,100.0 52.1,100.0 Q 50.7,100.0 49.3,100.0 Q 47.9,100.0 46.6,100.0 Q 45.2,100.0 43.8,100.0 Q 42.5,100.0 41.1,100.0 Q 39.7,100.0 38.4,100.0 Q 37.0,100.0 35.6,100.0 Q 34.2,100.0 32.9,100.0 Q 31.5,100.0 30.1,100.0 Q 28.8,100.0 27.4,100.0 Q 26.0,100.0 24.7,100.0 Q 23.3,100.0 21.9,100.0 Q 20.5,100.0 19.2,100.0 Q 17.8,100.0 16.4,100.0 Q 15.1,100.0 13.7,100.0 Q 12.3,100.0 11.0,100.0 Q 9.6,100.0 8.2,100.0 Q 6.8,100.0 5.5,100.0 Q 4.1,100.0 2.7,100.0 Q 1.4,100.0 0.0,100.0 Z" fill="url(#waveGrad)" opacity="0.25" filter="url(#wglow)"/>
<path d="M 0.0,100.0 Q 1.4,100.0 2.7,100.0 Q 4.1,100.0 5.5,100.0 Q 6.8,100.0 8.2,100.0 Q 9.6,100.0 11.0,100.0 Q 12.3,100.0 13.7,100.0 Q 15.1,100.0 16.4,100.0 Q 17.8,100.0 19.2,100.0 Q 20.5,100.0 21.9,100.0 Q 23.3,100.0 24.7,100.0 Q 26.0,100.0 27.4,100.0 Q 28.8,100.0 30.1,100.0 Q 31.5,100.0 32.9,100.0 Q 34.2,100.0 35.6,100.0 Q 37.0,100.0 38.4,100.0 Q 39.7,100.0 41.1,100.0 Q 42.5,100.0 43.8,100.0 Q 45.2,100.0 46.6,100.0 Q 47.9,100.0 49.3,100.0 Q 50.7,100.0 52.1,100.0 Q 53.4,100.0 54.8,100.0 Q 56.2,100.0 57.5,100.0 Q 58.9,100.0 60.3,100.0 Q 61.6,100.0 63.0,100.0 Q 64.4,100.0 65.8,100.0 Q 67.1,100.0 68.5,100.0 Q 69.9,100.0 71.2,100.0 Q 72.6,100.0 74.0,100.0 Q 75.3,100.0 76.7,100.0 Q 78.1,100.0 79.5,100.0 Q 80.8,100.0 82.2,100.0 Q 83.6,100.0 84.9,100.0 Q 86.3,100.0 87.7,100.0 Q 89.0,100.0 90.4,100.0 Q 91.8,100.0 93.2,100.0 Q 94.5,100.0 95.9,100.0 Q 97.3,100.0 98.6,100.0 Q 100.0,100.0 101.4,100.0 Q 102.7,100.0 104.1,100.0 Q 105.5,100.0 106.8,100.0 Q 108.2,100.0 109.6,100.0 Q 111.0,100.0 112.3,100.0 Q 113.7,100.0 115.1,100.0 Q 116.4,100.0 117.8,100.0 Q 119.2,100.0 120.5,100.0 Q 121.9,100.0 123.3,100.0 Q 124.7,100.0 126.0,100.0 Q 127.4,100.0 128.8,100.0 Q 130.1,100.0 131.5,100.0 Q 132.9,100.0 134.2,100.0 Q 135.6,100.0 137.0,100.0 Q 138.4,100.0 139.7,100.0 Q 141.1,100.0 142.5,100.0 Q 143.8,100.0 145.2,100.0 Q 146.6,100.0 147.9,100.0 Q 149.3,100.0 150.7,100.0 Q 152.1,100.0 153.4,100.0 Q 154.8,100.0 156.2,100.0 Q 157.5,100.0 158.9,100.0 Q 160.3,100.0 161.6,100.0 Q 163.0,100.0 164.4,100.0 Q 165.8,100.0 167.1,100.0 Q 168.5,100.0 169.9,100.0 Q 171.2,100.0 172.6,100.0 Q 174.0,100.0 175.3,100.0 Q 176.7,100.0 178.1,100.0 Q 179.5,100.0 180.8,100.0 Q 182.2,100.0 183.6,100.0 Q 184.9,100.0 186.3,100.0 Q 187.7,100.0 189.0,100.0 Q 190.4,100.0 191.8,100.0 Q 193.2,100.0 194.5,100.0 Q 195.9,100.0 197.3,100.0 Q 198.6,100.0 200.0,100.0 Q 201.4,100.0 202.7,100.0 Q 204.1,100.0 205.5,100.0 Q 206.8,100.0 208.2,100.0 Q 209.6,100.0 211.0,100.0 Q 212.3,100.0 213.7,100.0 Q 215.1,100.0 216.4,100.0 Q 217.8,100.0 219.2,100.0 Q 220.5,100.0 221.9,100.0 Q 223.3,100.0 224.7,100.0 Q 226.0,100.0 227.4,100.0 Q 228.8,100.0 230.1,100.0 Q 231.5,100.0 232.9,100.0 Q 234.2,100.0 235.6,100.0 Q 237.0,100.0 238.4,100.0 Q 239.7,100.0 241.1,100.0 Q 242.5,100.0 243.8,100.0 Q 245.2,100.0 246.6,100.0 Q 247.9,100.0 249.3,100.0 Q 250.7,100.0 252.1,100.0 Q 253.4,100.0 254.8,100.0 Q 256.2,100.0 257.5,100.0 Q 258.9,100.0 260.3,100.0 Q 261.6,100.0 263.0,100.0 Q 264.4,100.0 265.8,100.0 Q 267.1,100.0 268.5,100.0 Q 269.9,100.0 271.2,100.0 Q 272.6,100.0 274.0,100.0 Q 275.3,100.0 276.7,100.0 Q 278.1,100.0 279.5,100.0 Q 280.8,100.0 282.2,100.0 Q 283.6,100.0 284.9,100.0 Q 286.3,100.0 287.7,100.0 Q 289.0,100.0 290.4,100.0 Q 291.8,100.0 293.2,100.0 Q 294.5,100.0 295.9,100.0 Q 297.3,100.0 298.6,100.0 Q 300.0,100.0 301.4,100.0 Q 302.7,100.0 304.1,100.0 Q 305.5,100.0 306.8,100.0 Q 308.2,100.0 309.6,100.0 Q 311.0,100.0 312.3,100.0 Q 313.7,100.0 315.1,100.0 Q 316.4,100.0 317.8,100.0 Q 319.2,100.0 320.5,100.0 Q 321.9,100.0 323.3,100.0 Q 324.7,100.0 326.0,98.3 Q 327.4,98.3 328.8,98.3 Q 330.1,98.3 331.5,97.9 Q 332.9,97.9 334.2,97.9 Q 335.6,97.9 337.0,97.9 Q 338.4,97.9 339.7,97.9 Q 341.1,97.9 342.5,97.9 Q 343.8,97.9 345.2,97.9 Q 346.6,97.9 347.9,97.9 Q 349.3,97.9 350.7,97.9 Q 352.1,97.9 353.4,97.9 Q 354.8,97.9 356.2,97.9 Q 357.5,97.9 358.9,97.9 Q 360.3,97.9 361.6,99.7 Q 363.0,99.7 364.4,99.7 Q 365.8,99.7 367.1,100.0 Q 368.5,100.0 369.9,100.0 Q 371.2,100.0 372.6,100.0 Q 374.0,100.0 375.3,100.0 Q 376.7,100.0 378.1,100.0 Q 379.5,100.0 380.8,100.0 Q 382.2,100.0 383.6,100.0 Q 384.9,100.0 386.3,100.0 Q 387.7,100.0 389.0,100.0 Q 390.4,100.0 391.8,100.0 Q 393.2,100.0 394.5,100.0 Q 395.9,100.0 397.3,100.0 Q 398.6,100.0 400.0,100.0 Q 401.4,100.0 402.7,100.0 Q 404.1,100.0 405.5,100.0 Q 406.8,100.0 408.2,100.0 Q 409.6,100.0 411.0,100.0 Q 412.3,100.0 413.7,100.0 Q 415.1,100.0 416.4,100.0 Q 417.8,100.0 419.2,100.0 Q 420.5,100.0 421.9,100.0 Q 423.3,100.0 424.7,100.0 Q 426.0,100.0 427.4,100.0 Q 428.8,100.0 430.1,100.0 Q 431.5,100.0 432.9,100.0 Q 434.2,100.0 435.6,100.0 Q 437.0,100.0 438.4,100.0 Q 439.7,100.0 441.1,100.0 Q 442.5,100.0 443.8,100.0 Q 445.2,100.0 446.6,100.0 Q 447.9,100.0 449.3,97.9 Q 450.7,97.9 452.1,96.2 Q 453.4,96.2 454.8,96.2 Q 456.2,96.2 457.5,96.2 Q 458.9,96.2 460.3,96.2 Q 461.6,96.2 463.0,96.2 Q 464.4,96.2 465.8,96.2 Q 467.1,96.2 468.5,96.2 Q 469.9,96.2 471.2,96.2 Q 472.6,96.2 474.0,96.2 Q 475.3,96.2 476.7,96.2 Q 478.1,96.2 479.5,96.2 Q 480.8,96.2 482.2,96.2 Q 483.6,96.2 484.9,98.3 Q 486.3,98.3 487.7,100.0 Q 489.0,100.0 490.4,100.0 Q 491.8,100.0 493.2,100.0 Q 494.5,100.0 495.9,100.0 Q 497.3,100.0 498.6,100.0 Q 500.0,100.0 501.4,100.0 Q 502.7,100.0 504.1,100.0 Q 505.5,100.0 506.8,100.0 Q 508.2,100.0 509.6,100.0 Q 511.0,100.0 512.3,100.0 Q 513.7,100.0 515.1,100.0 Q 516.4,100.0 517.8,100.0 Q 519.2,100.0 520.5,100.0 Q 521.9,100.0 523.3,100.0 Q 524.7,100.0 526.0,100.0 Q 527.4,100.0 528.8,100.0 Q 530.1,100.0 531.5,100.0 Q 532.9,100.0 534.2,100.0 Q 535.6,100.0 537.0,100.0 Q 538.4,100.0 539.7,100.0 Q 541.1,100.0 542.5,100.0 Q 543.8,100.0 545.2,100.0 Q 546.6,100.0 547.9,100.0 Q 549.3,100.0 550.7,100.0 Q 552.1,100.0 553.4,100.0 Q 554.8,100.0 556.2,100.0 Q 557.5,100.0 558.9,100.0 Q 560.3,100.0 561.6,100.0 Q 563.0,100.0 564.4,100.0 Q 565.8,100.0 567.1,100.0 Q 568.5,100.0 569.9,99.8 Q 571.2,99.8 572.6,99.8 Q 574.0,99.8 575.3,99.8 Q 576.7,99.8 578.1,99.7 Q 579.5,99.7 580.8,99.7 Q 582.2,99.7 583.6,99.7 Q 584.9,99.7 586.3,99.7 Q 587.7,99.7 589.0,99.7 Q 590.4,99.7 591.8,99.7 Q 593.2,99.7 594.5,99.7 Q 595.9,99.7 597.3,99.7 Q 598.6,99.7 600.0,99.7 Q 601.4,99.7 602.7,99.7 Q 604.1,99.7 605.5,99.8 Q 606.8,99.8 608.2,99.8 Q 609.6,99.8 611.0,99.8 Q 612.3,99.8 613.7,100.0 Q 615.1,100.0 616.4,100.0 Q 617.8,100.0 619.2,100.0 Q 620.5,100.0 621.9,100.0 Q 623.3,100.0 624.7,100.0 Q 626.0,100.0 627.4,100.0 Q 628.8,100.0 630.1,100.0 Q 631.5,100.0 632.9,99.8 Q 634.2,99.8 635.6,99.8 Q 637.0,99.8 638.4,99.8 Q 639.7,99.8 641.1,99.8 Q 642.5,99.8 643.8,99.8 Q 645.2,99.8 646.6,99.8 Q 647.9,99.8 649.3,99.8 Q 650.7,99.8 652.1,99.3 Q 653.4,99.3 654.8,97.8 Q 656.2,97.8 657.5,97.6 Q 658.9,97.6 660.3,97.6 Q 661.6,97.6 663.0,97.6 Q 664.4,97.6 665.8,97.6 Q 667.1,97.6 668.5,97.8 Q 669.9,97.8 671.2,97.8 Q 672.6,97.8 674.0,97.4 Q 675.3,97.4 676.7,95.3 Q 678.1,95.3 679.5,95.3 Q 680.8,95.3 682.2,95.3 Q 683.6,95.3 684.9,95.3 Q 686.3,95.3 687.7,95.8 Q 689.0,95.8 690.4,97.4 Q 691.8,97.4 693.2,97.6 Q 694.5,97.6 695.9,97.6 Q 697.3,97.6 698.6,97.6 Q 700.0,97.6 701.4,97.6 Q 702.7,97.6 704.1,97.6 Q 705.5,97.6 706.8,97.6 Q 708.2,97.6 709.6,97.9 Q 711.0,97.9 712.3,100.0 Q 713.7,100.0 715.1,100.0 Q 716.4,100.0 717.8,100.0 Q 719.2,100.0 720.5,100.0 Q 721.9,100.0 723.3,99.5 Q 724.7,99.5 726.0,99.5 Q 727.4,99.5 728.8,99.5 Q 730.1,99.5 731.5,99.5 Q 732.9,99.5 734.2,99.5 Q 735.6,99.5 737.0,99.5 Q 738.4,99.5 739.7,99.5 Q 741.1,99.5 742.5,99.5 Q 743.8,99.5 745.2,99.5 Q 746.6,99.5 747.9,99.5 Q 749.3,99.5 750.7,99.5 Q 752.1,99.5 753.4,99.5 Q 754.8,99.5 756.2,99.5 Q 757.5,99.5 758.9,100.0 Q 760.3,100.0 761.6,100.0 Q 763.0,100.0 764.4,100.0 Q 765.8,100.0 767.1,100.0 Q 768.5,100.0 769.9,100.0 Q 771.2,100.0 772.6,100.0 Q 774.0,100.0 775.3,100.0 Q 776.7,100.0 778.1,100.0 Q 779.5,100.0 780.8,99.5 Q 782.2,99.5 783.6,99.5 Q 784.9,99.5 786.3,99.3 Q 787.7,99.3 789.0,99.3 Q 790.4,99.3 791.8,99.3 Q 793.2,99.3 794.5,99.3 Q 795.9,99.3 797.3,99.3 Q 798.6,99.3 800.0,99.3 Q 801.4,99.3 802.7,99.3 Q 804.1,99.3 805.5,99.3 Q 806.8,99.3 808.2,99.3 Q 809.6,99.3 811.0,99.3 Q 812.3,99.3 813.7,99.3 Q 815.1,99.3 816.4,99.8 Q 817.8,99.8 819.2,99.8 Q 820.5,99.8 821.9,100.0 Q 823.3,100.0 824.7,100.0 Q 826.0,100.0 827.4,100.0 Q 828.8,100.0 830.1,99.5 Q 831.5,99.5 832.9,99.1 Q 834.2,99.1 835.6,99.1 Q 837.0,99.1 838.4,99.1 Q 839.7,99.1 841.1,99.1 Q 842.5,99.1 843.8,99.1 Q 845.2,99.1 846.6,98.1 Q 847.9,98.1 849.3,95.5 Q 850.7,95.5 852.1,94.6 Q 853.4,94.6 854.8,92.2 Q 856.2,92.2 857.5,92.0 Q 858.9,92.0 860.3,92.0 Q 861.6,92.0 863.0,92.0 Q 864.4,92.0 865.8,92.6 Q 867.1,92.6 868.5,92.9 Q 869.9,92.9 871.2,92.9 Q 872.6,92.9 874.0,92.9 Q 875.3,92.9 876.7,89.3 Q 878.1,89.3 879.5,89.3 Q 880.8,89.3 882.2,90.3 Q 883.6,90.3 884.9,92.9 Q 886.3,92.9 887.7,93.8 Q 889.0,93.8 890.4,96.2 Q 891.8,96.2 893.2,96.4 Q 894.5,96.4 895.9,96.4 Q 897.3,96.4 898.6,96.4 Q 900.0,96.4 901.4,96.4 Q 902.7,96.4 904.1,96.4 Q 905.5,96.4 906.8,96.4 Q 908.2,96.4 909.6,96.4 Q 911.0,96.4 912.3,100.0 Q 913.7,100.0 915.1,100.0 Q 916.4,100.0 917.8,100.0 Q 919.2,100.0 920.5,100.0 Q 921.9,100.0 923.3,100.0 Q 924.7,100.0 926.0,100.0 Q 927.4,100.0 928.8,100.0 Q 930.1,100.0 931.5,100.0 Q 932.9,100.0 934.2,100.0 Q 935.6,100.0 937.0,100.0 Q 938.4,100.0 939.7,100.0 Q 941.1,100.0 942.5,100.0 Q 943.8,100.0 945.2,100.0 Q 946.6,100.0 947.9,99.7 Q 949.3,99.7 950.7,99.7 Q 952.1,99.7 953.4,99.7 Q 954.8,99.7 956.2,99.7 Q 957.5,99.7 958.9,99.7 Q 960.3,99.7 961.6,99.7 Q 963.0,99.7 964.4,99.7 Q 965.8,99.7 967.1,99.7 Q 968.5,99.7 969.9,99.7 Q 971.2,99.7 972.6,93.4 Q 974.0,93.4 975.3,92.6 Q 976.7,92.6 978.1,92.4 Q 979.5,92.4 980.8,85.5 Q 982.2,85.5 983.6,82.7 Q 984.9,82.7 986.3,81.2 Q 987.7,81.2 989.0,79.5 Q 990.4,79.5 991.8,77.5 Q 993.2,77.5 994.5,75.0 Q 995.9,75.0 997.3,71.9 Q 998.6,71.9 1000.0,67.9 L 1000.0,132.1 Q 998.6,132.1 997.3,128.1 Q 995.9,128.1 994.5,125.0 Q 993.2,125.0 991.8,122.5 Q 990.4,122.5 989.0,120.5 Q 987.7,120.5 986.3,118.8 Q 984.9,118.8 983.6,117.3 Q 982.2,117.3 980.8,114.5 Q 979.5,114.5 978.1,107.6 Q 976.7,107.6 975.3,107.4 Q 974.0,107.4 972.6,106.6 Q 971.2,106.6 969.9,100.3 Q 968.5,100.3 967.1,100.3 Q 965.8,100.3 964.4,100.3 Q 963.0,100.3 961.6,100.3 Q 960.3,100.3 958.9,100.3 Q 957.5,100.3 956.2,100.3 Q 954.8,100.3 953.4,100.3 Q 952.1,100.3 950.7,100.3 Q 949.3,100.3 947.9,100.3 Q 946.6,100.3 945.2,100.0 Q 943.8,100.0 942.5,100.0 Q 941.1,100.0 939.7,100.0 Q 938.4,100.0 937.0,100.0 Q 935.6,100.0 934.2,100.0 Q 932.9,100.0 931.5,100.0 Q 930.1,100.0 928.8,100.0 Q 927.4,100.0 926.0,100.0 Q 924.7,100.0 923.3,100.0 Q 921.9,100.0 920.5,100.0 Q 919.2,100.0 917.8,100.0 Q 916.4,100.0 915.1,100.0 Q 913.7,100.0 912.3,100.0 Q 911.0,100.0 909.6,103.6 Q 908.2,103.6 906.8,103.6 Q 905.5,103.6 904.1,103.6 Q 902.7,103.6 901.4,103.6 Q 900.0,103.6 898.6,103.6 Q 897.3,103.6 895.9,103.6 Q 894.5,103.6 893.2,103.6 Q 891.8,103.6 890.4,103.8 Q 889.0,103.8 887.7,106.2 Q 886.3,106.2 884.9,107.1 Q 883.6,107.1 882.2,109.7 Q 880.8,109.7 879.5,110.7 Q 878.1,110.7 876.7,110.7 Q 875.3,110.7 874.0,107.1 Q 872.6,107.1 871.2,107.1 Q 869.9,107.1 868.5,107.1 Q 867.1,107.1 865.8,107.4 Q 864.4,107.4 863.0,108.0 Q 861.6,108.0 860.3,108.0 Q 858.9,108.0 857.5,108.0 Q 856.2,108.0 854.8,107.8 Q 853.4,107.8 852.1,105.4 Q 850.7,105.4 849.3,104.5 Q 847.9,104.5 846.6,101.9 Q 845.2,101.9 843.8,100.9 Q 842.5,100.9 841.1,100.9 Q 839.7,100.9 838.4,100.9 Q 837.0,100.9 835.6,100.9 Q 834.2,100.9 832.9,100.9 Q 831.5,100.9 830.1,100.5 Q 828.8,100.5 827.4,100.0 Q 826.0,100.0 824.7,100.0 Q 823.3,100.0 821.9,100.0 Q 820.5,100.0 819.2,100.2 Q 817.8,100.2 816.4,100.2 Q 815.1,100.2 813.7,100.7 Q 812.3,100.7 811.0,100.7 Q 809.6,100.7 808.2,100.7 Q 806.8,100.7 805.5,100.7 Q 804.1,100.7 802.7,100.7 Q 801.4,100.7 800.0,100.7 Q 798.6,100.7 797.3,100.7 Q 795.9,100.7 794.5,100.7 Q 793.2,100.7 791.8,100.7 Q 790.4,100.7 789.0,100.7 Q 787.7,100.7 786.3,100.7 Q 784.9,100.7 783.6,100.5 Q 782.2,100.5 780.8,100.5 Q 779.5,100.5 778.1,100.0 Q 776.7,100.0 775.3,100.0 Q 774.0,100.0 772.6,100.0 Q 771.2,100.0 769.9,100.0 Q 768.5,100.0 767.1,100.0 Q 765.8,100.0 764.4,100.0 Q 763.0,100.0 761.6,100.0 Q 760.3,100.0 758.9,100.0 Q 757.5,100.0 756.2,100.5 Q 754.8,100.5 753.4,100.5 Q 752.1,100.5 750.7,100.5 Q 749.3,100.5 747.9,100.5 Q 746.6,100.5 745.2,100.5 Q 743.8,100.5 742.5,100.5 Q 741.1,100.5 739.7,100.5 Q 738.4,100.5 737.0,100.5 Q 735.6,100.5 734.2,100.5 Q 732.9,100.5 731.5,100.5 Q 730.1,100.5 728.8,100.5 Q 727.4,100.5 726.0,100.5 Q 724.7,100.5 723.3,100.5 Q 721.9,100.5 720.5,100.0 Q 719.2,100.0 717.8,100.0 Q 716.4,100.0 715.1,100.0 Q 713.7,100.0 712.3,100.0 Q 711.0,100.0 709.6,102.1 Q 708.2,102.1 706.8,102.4 Q 705.5,102.4 704.1,102.4 Q 702.7,102.4 701.4,102.4 Q 700.0,102.4 698.6,102.4 Q 697.3,102.4 695.9,102.4 Q 694.5,102.4 693.2,102.4 Q 691.8,102.4 690.4,102.6 Q 689.0,102.6 687.7,104.2 Q 686.3,104.2 684.9,104.7 Q 683.6,104.7 682.2,104.7 Q 680.8,104.7 679.5,104.7 Q 678.1,104.7 676.7,104.7 Q 675.3,104.7 674.0,102.6 Q 672.6,102.6 671.2,102.2 Q 669.9,102.2 668.5,102.2 Q 667.1,102.2 665.8,102.4 Q 664.4,102.4 663.0,102.4 Q 661.6,102.4 660.3,102.4 Q 658.9,102.4 657.5,102.4 Q 656.2,102.4 654.8,102.2 Q 653.4,102.2 652.1,100.7 Q 650.7,100.7 649.3,100.2 Q 647.9,100.2 646.6,100.2 Q 645.2,100.2 643.8,100.2 Q 642.5,100.2 641.1,100.2 Q 639.7,100.2 638.4,100.2 Q 637.0,100.2 635.6,100.2 Q 634.2,100.2 632.9,100.2 Q 631.5,100.2 630.1,100.0 Q 628.8,100.0 627.4,100.0 Q 626.0,100.0 624.7,100.0 Q 623.3,100.0 621.9,100.0 Q 620.5,100.0 619.2,100.0 Q 617.8,100.0 616.4,100.0 Q 615.1,100.0 613.7,100.0 Q 612.3,100.0 611.0,100.2 Q 609.6,100.2 608.2,100.2 Q 606.8,100.2 605.5,100.2 Q 604.1,100.2 602.7,100.3 Q 601.4,100.3 600.0,100.3 Q 598.6,100.3 597.3,100.3 Q 595.9,100.3 594.5,100.3 Q 593.2,100.3 591.8,100.3 Q 590.4,100.3 589.0,100.3 Q 587.7,100.3 586.3,100.3 Q 584.9,100.3 583.6,100.3 Q 582.2,100.3 580.8,100.3 Q 579.5,100.3 578.1,100.3 Q 576.7,100.3 575.3,100.2 Q 574.0,100.2 572.6,100.2 Q 571.2,100.2 569.9,100.2 Q 568.5,100.2 567.1,100.0 Q 565.8,100.0 564.4,100.0 Q 563.0,100.0 561.6,100.0 Q 560.3,100.0 558.9,100.0 Q 557.5,100.0 556.2,100.0 Q 554.8,100.0 553.4,100.0 Q 552.1,100.0 550.7,100.0 Q 549.3,100.0 547.9,100.0 Q 546.6,100.0 545.2,100.0 Q 543.8,100.0 542.5,100.0 Q 541.1,100.0 539.7,100.0 Q 538.4,100.0 537.0,100.0 Q 535.6,100.0 534.2,100.0 Q 532.9,100.0 531.5,100.0 Q 530.1,100.0 528.8,100.0 Q 527.4,100.0 526.0,100.0 Q 524.7,100.0 523.3,100.0 Q 521.9,100.0 520.5,100.0 Q 519.2,100.0 517.8,100.0 Q 516.4,100.0 515.1,100.0 Q 513.7,100.0 512.3,100.0 Q 511.0,100.0 509.6,100.0 Q 508.2,100.0 506.8,100.0 Q 505.5,100.0 504.1,100.0 Q 502.7,100.0 501.4,100.0 Q 500.0,100.0 498.6,100.0 Q 497.3,100.0 495.9,100.0 Q 494.5,100.0 493.2,100.0 Q 491.8,100.0 490.4,100.0 Q 489.0,100.0 487.7,100.0 Q 486.3,100.0 484.9,101.7 Q 483.6,101.7 482.2,103.8 Q 480.8,103.8 479.5,103.8 Q 478.1,103.8 476.7,103.8 Q 475.3,103.8 474.0,103.8 Q 472.6,103.8 471.2,103.8 Q 469.9,103.8 468.5,103.8 Q 467.1,103.8 465.8,103.8 Q 464.4,103.8 463.0,103.8 Q 461.6,103.8 460.3,103.8 Q 458.9,103.8 457.5,103.8 Q 456.2,103.8 454.8,103.8 Q 453.4,103.8 452.1,103.8 Q 450.7,103.8 449.3,102.1 Q 447.9,102.1 446.6,100.0 Q 445.2,100.0 443.8,100.0 Q 442.5,100.0 441.1,100.0 Q 439.7,100.0 438.4,100.0 Q 437.0,100.0 435.6,100.0 Q 434.2,100.0 432.9,100.0 Q 431.5,100.0 430.1,100.0 Q 428.8,100.0 427.4,100.0 Q 426.0,100.0 424.7,100.0 Q 423.3,100.0 421.9,100.0 Q 420.5,100.0 419.2,100.0 Q 417.8,100.0 416.4,100.0 Q 415.1,100.0 413.7,100.0 Q 412.3,100.0 411.0,100.0 Q 409.6,100.0 408.2,100.0 Q 406.8,100.0 405.5,100.0 Q 404.1,100.0 402.7,100.0 Q 401.4,100.0 400.0,100.0 Q 398.6,100.0 397.3,100.0 Q 395.9,100.0 394.5,100.0 Q 393.2,100.0 391.8,100.0 Q 390.4,100.0 389.0,100.0 Q 387.7,100.0 386.3,100.0 Q 384.9,100.0 383.6,100.0 Q 382.2,100.0 380.8,100.0 Q 379.5,100.0 378.1,100.0 Q 376.7,100.0 375.3,100.0 Q 374.0,100.0 372.6,100.0 Q 371.2,100.0 369.9,100.0 Q 368.5,100.0 367.1,100.0 Q 365.8,100.0 364.4,100.3 Q 363.0,100.3 361.6,100.3 Q 360.3,100.3 358.9,102.1 Q 357.5,102.1 356.2,102.1 Q 354.8,102.1 353.4,102.1 Q 352.1,102.1 350.7,102.1 Q 349.3,102.1 347.9,102.1 Q 346.6,102.1 345.2,102.1 Q 343.8,102.1 342.5,102.1 Q 341.1,102.1 339.7,102.1 Q 338.4,102.1 337.0,102.1 Q 335.6,102.1 334.2,102.1 Q 332.9,102.1 331.5,102.1 Q 330.1,102.1 328.8,101.7 Q 327.4,101.7 326.0,101.7 Q 324.7,101.7 323.3,100.0 Q 321.9,100.0 320.5,100.0 Q 319.2,100.0 317.8,100.0 Q 316.4,100.0 315.1,100.0 Q 313.7,100.0 312.3,100.0 Q 311.0,100.0 309.6,100.0 Q 308.2,100.0 306.8,100.0 Q 305.5,100.0 304.1,100.0 Q 302.7,100.0 301.4,100.0 Q 300.0,100.0 298.6,100.0 Q 297.3,100.0 295.9,100.0 Q 294.5,100.0 293.2,100.0 Q 291.8,100.0 290.4,100.0 Q 289.0,100.0 287.7,100.0 Q 286.3,100.0 284.9,100.0 Q 283.6,100.0 282.2,100.0 Q 280.8,100.0 279.5,100.0 Q 278.1,100.0 276.7,100.0 Q 275.3,100.0 274.0,100.0 Q 272.6,100.0 271.2,100.0 Q 269.9,100.0 268.5,100.0 Q 267.1,100.0 265.8,100.0 Q 264.4,100.0 263.0,100.0 Q 261.6,100.0 260.3,100.0 Q 258.9,100.0 257.5,100.0 Q 256.2,100.0 254.8,100.0 Q 253.4,100.0 252.1,100.0 Q 250.7,100.0 249.3,100.0 Q 247.9,100.0 246.6,100.0 Q 245.2,100.0 243.8,100.0 Q 242.5,100.0 241.1,100.0 Q 239.7,100.0 238.4,100.0 Q 237.0,100.0 235.6,100.0 Q 234.2,100.0 232.9,100.0 Q 231.5,100.0 230.1,100.0 Q 228.8,100.0 227.4,100.0 Q 226.0,100.0 224.7,100.0 Q 223.3,100.0 221.9,100.0 Q 220.5,100.0 219.2,100.0 Q 217.8,100.0 216.4,100.0 Q 215.1,100.0 213.7,100.0 Q 212.3,100.0 211.0,100.0 Q 209.6,100.0 208.2,100.0 Q 206.8,100.0 205.5,100.0 Q 204.1,100.0 202.7,100.0 Q 201.4,100.0 200.0,100.0 Q 198.6,100.0 197.3,100.0 Q 195.9,100.0 194.5,100.0 Q 193.2,100.0 191.8,100.0 Q 190.4,100.0 189.0,100.0 Q 187.7,100.0 186.3,100.0 Q 184.9,100.0 183.6,100.0 Q 182.2,100.0 180.8,100.0 Q 179.5,100.0 178.1,100.0 Q 176.7,100.0 175.3,100.0 Q 174.0,100.0 172.6,100.0 Q 171.2,100.0 169.9,100.0 Q 168.5,100.0 167.1,100.0 Q 165.8,100.0 164.4,100.0 Q 163.0,100.0 161.6,100.0 Q 160.3,100.0 158.9,100.0 Q 157.5,100.0 156.2,100.0 Q 154.8,100.0 153.4,100.0 Q 152.1,100.0 150.7,100.0 Q 149.3,100.0 147.9,100.0 Q 146.6,100.0 145.2,100.0 Q 143.8,100.0 142.5,100.0 Q 141.1,100.0 139.7,100.0 Q 138.4,100.0 137.0,100.0 Q 135.6,100.0 134.2,100.0 Q 132.9,100.0 131.5,100.0 Q 130.1,100.0 128.8,100.0 Q 127.4,100.0 126.0,100.0 Q 124.7,100.0 123.3,100.0 Q 121.9,100.0 120.5,100.0 Q 119.2,100.0 117.8,100.0 Q 116.4,100.0 115.1,100.0 Q 113.7,100.0 112.3,100.0 Q 111.0,100.0 109.6,100.0 Q 108.2,100.0 106.8,100.0 Q 105.5,100.0 104.1,100.0 Q 102.7,100.0 101.4,100.0 Q 100.0,100.0 98.6,100.0 Q 97.3,100.0 95.9,100.0 Q 94.5,100.0 93.2,100.0 Q 91.8,100.0 90.4,100.0 Q 89.0,100.0 87.7,100.0 Q 86.3,100.0 84.9,100.0 Q 83.6,100.0 82.2,100.0 Q 80.8,100.0 79.5,100.0 Q 78.1,100.0 76.7,100.0 Q 75.3,100.0 74.0,100.0 Q 72.6,100.0 71.2,100.0 Q 69.9,100.0 68.5,100.0 Q 67.1,100.0 65.8,100.0 Q 64.4,100.0 63.0,100.0 Q 61.6,100.0 60.3,100.0 Q 58.9,100.0 57.5,100.0 Q 56.2,100.0 54.8,100.0 Q 53.4,100.0 52.1,100.0 Q 50.7,100.0 49.3,100.0 Q 47.9,100.0 46.6,100.0 Q 45.2,100.0 43.8,100.0 Q 42.5,100.0 41.1,100.0 Q 39.7,100.0 38.4,100.0 Q 37.0,100.0 35.6,100.0 Q 34.2,100.0 32.9,100.0 Q 31.5,100.0 30.1,100.0 Q 28.8,100.0 27.4,100.0 Q 26.0,100.0 24.7,100.0 Q 23.3,100.0 21.9,100.0 Q 20.5,100.0 19.2,100.0 Q 17.8,100.0 16.4,100.0 Q 15.1,100.0 13.7,100.0 Q 12.3,100.0 11.0,100.0 Q 9.6,100.0 8.2,100.0 Q 6.8,100.0 5.5,100.0 Q 4.1,100.0 2.7,100.0 Q 1.4,100.0 0.0,100.0 Z" fill="url(#waveGrad)" opacity="0.55"/>
<path d="M 0.0,100.0 Q 1.4,100.0 2.7,100.0 Q 4.1,100.0 5.5,100.0 Q 6.8,100.0 8.2,100.0 Q 9.6,100.0 11.0,100.0 Q 12.3,100.0 13.7,100.0 Q 15.1,100.0 16.4,100.0 Q 17.8,100.0 19.2,100.0 Q 20.5,100.0 21.9,100.0 Q 23.3,100.0 24.7,100.0 Q 26.0,100.0 27.4,100.0 Q 28.8,100.0 30.1,100.0 Q 31.5,100.0 32.9,100.0 Q 34.2,100.0 35.6,100.0 Q 37.0,100.0 38.4,100.0 Q 39.7,100.0 41.1,100.0 Q 42.5,100.0 43.8,100.0 Q 45.2,100.0 46.6,100.0 Q 47.9,100.0 49.3,100.0 Q 50.7,100.0 52.1,100.0 Q 53.4,100.0 54.8,100.0 Q 56.2,100.0 57.5,100.0 Q 58.9,100.0 60.3,100.0 Q 61.6,100.0 63.0,100.0 Q 64.4,100.0 65.8,100.0 Q 67.1,100.0 68.5,100.0 Q 69.9,100.0 71.2,100.0 Q 72.6,100.0 74.0,100.0 Q 75.3,100.0 76.7,100.0 Q 78.1,100.0 79.5,100.0 Q 80.8,100.0 82.2,100.0 Q 83.6,100.0 84.9,100.0 Q 86.3,100.0 87.7,100.0 Q 89.0,100.0 90.4,100.0 Q 91.8,100.0 93.2,100.0 Q 94.5,100.0 95.9,100.0 Q 97.3,100.0 98.6,100.0 Q 100.0,100.0 101.4,100.0 Q 102.7,100.0 104.1,100.0 Q 105.5,100.0 106.8,100.0 Q 108.2,100.0 109.6,100.0 Q 111.0,100.0 112.3,100.0 Q 113.7,100.0 115.1,100.0 Q 116.4,100.0 117.8,100.0 Q 119.2,100.0 120.5,100.0 Q 121.9,100.0 123.3,100.0 Q 124.7,100.0 126.0,100.0 Q 127.4,100.0 128.8,100.0 Q 130.1,100.0 131.5,100.0 Q 132.9,100.0 134.2,100.0 Q 135.6,100.0 137.0,100.0 Q 138.4,100.0 139.7,100.0 Q 141.1,100.0 142.5,100.0 Q 143.8,100.0 145.2,100.0 Q 146.6,100.0 147.9,100.0 Q 149.3,100.0 150.7,100.0 Q 152.1,100.0 153.4,100.0 Q 154.8,100.0 156.2,100.0 Q 157.5,100.0 158.9,100.0 Q 160.3,100.0 161.6,100.0 Q 163.0,100.0 164.4,100.0 Q 165.8,100.0 167.1,100.0 Q 168.5,100.0 169.9,100.0 Q 171.2,100.0 172.6,100.0 Q 174.0,100.0 175.3,100.0 Q 176.7,100.0 178.1,100.0 Q 179.5,100.0 180.8,100.0 Q 182.2,100.0 183.6,100.0 Q 184.9,100.0 186.3,100.0 Q 187.7,100.0 189.0,100.0 Q 190.4,100.0 191.8,100.0 Q 193.2,100.0 194.5,100.0 Q 195.9,100.0 197.3,100.0 Q 198.6,100.0 200.0,100.0 Q 201.4,100.0 202.7,100.0 Q 204.1,100.0 205.5,100.0 Q 206.8,100.0 208.2,100.0 Q 209.6,100.0 211.0,100.0 Q 212.3,100.0 213.7,100.0 Q 215.1,100.0 216.4,100.0 Q 217.8,100.0 219.2,100.0 Q 220.5,100.0 221.9,100.0 Q 223.3,100.0 224.7,100.0 Q 226.0,100.0 227.4,100.0 Q 228.8,100.0 230.1,100.0 Q 231.5,100.0 232.9,100.0 Q 234.2,100.0 235.6,100.0 Q 237.0,100.0 238.4,100.0 Q 239.7,100.0 241.1,100.0 Q 242.5,100.0 243.8,100.0 Q 245.2,100.0 246.6,100.0 Q 247.9,100.0 249.3,100.0 Q 250.7,100.0 252.1,100.0 Q 253.4,100.0 254.8,100.0 Q 256.2,100.0 257.5,100.0 Q 258.9,100.0 260.3,100.0 Q 261.6,100.0 263.0,100.0 Q 264.4,100.0 265.8,100.0 Q 267.1,100.0 268.5,100.0 Q 269.9,100.0 271.2,100.0 Q 272.6,100.0 274.0,100.0 Q 275.3,100.0 276.7,100.0 Q 278.1,100.0 279.5,100.0 Q 280.8,100.0 282.2,100.0 Q 283.6,100.0 284.9,100.0 Q 286.3,100.0 287.7,100.0 Q 289.0,100.0 290.4,100.0 Q 291.8,100.0 293.2,100.0 Q 294.5,100.0 295.9,100.0 Q 297.3,100.0 298.6,100.0 Q 300.0,100.0 301.4,100.0 Q 302.7,100.0 304.1,100.0 Q 305.5,100.0 306.8,100.0 Q 308.2,100.0 309.6,100.0 Q 311.0,100.0 312.3,100.0 Q 313.7,100.0 315.1,100.0 Q 316.4,100.0 317.8,100.0 Q 319.2,100.0 320.5,100.0 Q 321.9,100.0 323.3,100.0 Q 324.7,100.0 326.0,98.3 Q 327.4,98.3 328.8,98.3 Q 330.1,98.3 331.5,97.9 Q 332.9,97.9 334.2,97.9 Q 335.6,97.9 337.0,97.9 Q 338.4,97.9 339.7,97.9 Q 341.1,97.9 342.5,97.9 Q 343.8,97.9 345.2,97.9 Q 346.6,97.9 347.9,97.9 Q 349.3,97.9 350.7,97.9 Q 352.1,97.9 353.4,97.9 Q 354.8,97.9 356.2,97.9 Q 357.5,97.9 358.9,97.9 Q 360.3,97.9 361.6,99.7 Q 363.0,99.7 364.4,99.7 Q 365.8,99.7 367.1,100.0 Q 368.5,100.0 369.9,100.0 Q 371.2,100.0 372.6,100.0 Q 374.0,100.0 375.3,100.0 Q 376.7,100.0 378.1,100.0 Q 379.5,100.0 380.8,100.0 Q 382.2,100.0 383.6,100.0 Q 384.9,100.0 386.3,100.0 Q 387.7,100.0 389.0,100.0 Q 390.4,100.0 391.8,100.0 Q 393.2,100.0 394.5,100.0 Q 395.9,100.0 397.3,100.0 Q 398.6,100.0 400.0,100.0 Q 401.4,100.0 402.7,100.0 Q 404.1,100.0 405.5,100.0 Q 406.8,100.0 408.2,100.0 Q 409.6,100.0 411.0,100.0 Q 412.3,100.0 413.7,100.0 Q 415.1,100.0 416.4,100.0 Q 417.8,100.0 419.2,100.0 Q 420.5,100.0 421.9,100.0 Q 423.3,100.0 424.7,100.0 Q 426.0,100.0 427.4,100.0 Q 428.8,100.0 430.1,100.0 Q 431.5,100.0 432.9,100.0 Q 434.2,100.0 435.6,100.0 Q 437.0,100.0 438.4,100.0 Q 439.7,100.0 441.1,100.0 Q 442.5,100.0 443.8,100.0 Q 445.2,100.0 446.6,100.0 Q 447.9,100.0 449.3,97.9 Q 450.7,97.9 452.1,96.2 Q 453.4,96.2 454.8,96.2 Q 456.2,96.2 457.5,96.2 Q 458.9,96.2 460.3,96.2 Q 461.6,96.2 463.0,96.2 Q 464.4,96.2 465.8,96.2 Q 467.1,96.2 468.5,96.2 Q 469.9,96.2 471.2,96.2 Q 472.6,96.2 474.0,96.2 Q 475.3,96.2 476.7,96.2 Q 478.1,96.2 479.5,96.2 Q 480.8,96.2 482.2,96.2 Q 483.6,96.2 484.9,98.3 Q 486.3,98.3 487.7,100.0 Q 489.0,100.0 490.4,100.0 Q 491.8,100.0 493.2,100.0 Q 494.5,100.0 495.9,100.0 Q 497.3,100.0 498.6,100.0 Q 500.0,100.0 501.4,100.0 Q 502.7,100.0 504.1,100.0 Q 505.5,100.0 506.8,100.0 Q 508.2,100.0 509.6,100.0 Q 511.0,100.0 512.3,100.0 Q 513.7,100.0 515.1,100.0 Q 516.4,100.0 517.8,100.0 Q 519.2,100.0 520.5,100.0 Q 521.9,100.0 523.3,100.0 Q 524.7,100.0 526.0,100.0 Q 527.4,100.0 528.8,100.0 Q 530.1,100.0 531.5,100.0 Q 532.9,100.0 534.2,100.0 Q 535.6,100.0 537.0,100.0 Q 538.4,100.0 539.7,100.0 Q 541.1,100.0 542.5,100.0 Q 543.8,100.0 545.2,100.0 Q 546.6,100.0 547.9,100.0 Q 549.3,100.0 550.7,100.0 Q 552.1,100.0 553.4,100.0 Q 554.8,100.0 556.2,100.0 Q 557.5,100.0 558.9,100.0 Q 560.3,100.0 561.6,100.0 Q 563.0,100.0 564.4,100.0 Q 565.8,100.0 567.1,100.0 Q 568.5,100.0 569.9,99.8 Q 571.2,99.8 572.6,99.8 Q 574.0,99.8 575.3,99.8 Q 576.7,99.8 578.1,99.7 Q 579.5,99.7 580.8,99.7 Q 582.2,99.7 583.6,99.7 Q 584.9,99.7 586.3,99.7 Q 587.7,99.7 589.0,99.7 Q 590.4,99.7 591.8,99.7 Q 593.2,99.7 594.5,99.7 Q 595.9,99.7 597.3,99.7 Q 598.6,99.7 600.0,99.7 Q 601.4,99.7 602.7,99.7 Q 604.1,99.7 605.5,99.8 Q 606.8,99.8 608.2,99.8 Q 609.6,99.8 611.0,99.8 Q 612.3,99.8 613.7,100.0 Q 615.1,100.0 616.4,100.0 Q 617.8,100.0 619.2,100.0 Q 620.5,100.0 621.9,100.0 Q 623.3,100.0 624.7,100.0 Q 626.0,100.0 627.4,100.0 Q 628.8,100.0 630.1,100.0 Q 631.5,100.0 632.9,99.8 Q 634.2,99.8 635.6,99.8 Q 637.0,99.8 638.4,99.8 Q 639.7,99.8 641.1,99.8 Q 642.5,99.8 643.8,99.8 Q 645.2,99.8 646.6,99.8 Q 647.9,99.8 649.3,99.8 Q 650.7,99.8 652.1,99.3 Q 653.4,99.3 654.8,97.8 Q 656.2,97.8 657.5,97.6 Q 658.9,97.6 660.3,97.6 Q 661.6,97.6 663.0,97.6 Q 664.4,97.6 665.8,97.6 Q 667.1,97.6 668.5,97.8 Q 669.9,97.8 671.2,97.8 Q 672.6,97.8 674.0,97.4 Q 675.3,97.4 676.7,95.3 Q 678.1,95.3 679.5,95.3 Q 680.8,95.3 682.2,95.3 Q 683.6,95.3 684.9,95.3 Q 686.3,95.3 687.7,95.8 Q 689.0,95.8 690.4,97.4 Q 691.8,97.4 693.2,97.6 Q 694.5,97.6 695.9,97.6 Q 697.3,97.6 698.6,97.6 Q 700.0,97.6 701.4,97.6 Q 702.7,97.6 704.1,97.6 Q 705.5,97.6 706.8,97.6 Q 708.2,97.6 709.6,97.9 Q 711.0,97.9 712.3,100.0 Q 713.7,100.0 715.1,100.0 Q 716.4,100.0 717.8,100.0 Q 719.2,100.0 720.5,100.0 Q 721.9,100.0 723.3,99.5 Q 724.7,99.5 726.0,99.5 Q 727.4,99.5 728.8,99.5 Q 730.1,99.5 731.5,99.5 Q 732.9,99.5 734.2,99.5 Q 735.6,99.5 737.0,99.5 Q 738.4,99.5 739.7,99.5 Q 741.1,99.5 742.5,99.5 Q 743.8,99.5 745.2,99.5 Q 746.6,99.5 747.9,99.5 Q 749.3,99.5 750.7,99.5 Q 752.1,99.5 753.4,99.5 Q 754.8,99.5 756.2,99.5 Q 757.5,99.5 758.9,100.0 Q 760.3,100.0 761.6,100.0 Q 763.0,100.0 764.4,100.0 Q 765.8,100.0 767.1,100.0 Q 768.5,100.0 769.9,100.0 Q 771.2,100.0 772.6,100.0 Q 774.0,100.0 775.3,100.0 Q 776.7,100.0 778.1,100.0 Q 779.5,100.0 780.8,99.5 Q 782.2,99.5 783.6,99.5 Q 784.9,99.5 786.3,99.3 Q 787.7,99.3 789.0,99.3 Q 790.4,99.3 791.8,99.3 Q 793.2,99.3 794.5,99.3 Q 795.9,99.3 797.3,99.3 Q 798.6,99.3 800.0,99.3 Q 801.4,99.3 802.7,99.3 Q 804.1,99.3 805.5,99.3 Q 806.8,99.3 808.2,99.3 Q 809.6,99.3 811.0,99.3 Q 812.3,99.3 813.7,99.3 Q 815.1,99.3 816.4,99.8 Q 817.8,99.8 819.2,99.8 Q 820.5,99.8 821.9,100.0 Q 823.3,100.0 824.7,100.0 Q 826.0,100.0 827.4,100.0 Q 828.8,100.0 830.1,99.5 Q 831.5,99.5 832.9,99.1 Q 834.2,99.1 835.6,99.1 Q 837.0,99.1 838.4,99.1 Q 839.7,99.1 841.1,99.1 Q 842.5,99.1 843.8,99.1 Q 845.2,99.1 846.6,98.1 Q 847.9,98.1 849.3,95.5 Q 850.7,95.5 852.1,94.6 Q 853.4,94.6 854.8,92.2 Q 856.2,92.2 857.5,92.0 Q 858.9,92.0 860.3,92.0 Q 861.6,92.0 863.0,92.0 Q 864.4,92.0 865.8,92.6 Q 867.1,92.6 868.5,92.9 Q 869.9,92.9 871.2,92.9 Q 872.6,92.9 874.0,92.9 Q 875.3,92.9 876.7,89.3 Q 878.1,89.3 879.5,89.3 Q 880.8,89.3 882.2,90.3 Q 883.6,90.3 884.9,92.9 Q 886.3,92.9 887.7,93.8 Q 889.0,93.8 890.4,96.2 Q 891.8,96.2 893.2,96.4 Q 894.5,96.4 895.9,96.4 Q 897.3,96.4 898.6,96.4 Q 900.0,96.4 901.4,96.4 Q 902.7,96.4 904.1,96.4 Q 905.5,96.4 906.8,96.4 Q 908.2,96.4 909.6,96.4 Q 911.0,96.4 912.3,100.0 Q 913.7,100.0 915.1,100.0 Q 916.4,100.0 917.8,100.0 Q 919.2,100.0 920.5,100.0 Q 921.9,100.0 923.3,100.0 Q 924.7,100.0 926.0,100.0 Q 927.4,100.0 928.8,100.0 Q 930.1,100.0 931.5,100.0 Q 932.9,100.0 934.2,100.0 Q 935.6,100.0 937.0,100.0 Q 938.4,100.0 939.7,100.0 Q 941.1,100.0 942.5,100.0 Q 943.8,100.0 945.2,100.0 Q 946.6,100.0 947.9,99.7 Q 949.3,99.7 950.7,99.7 Q 952.1,99.7 953.4,99.7 Q 954.8,99.7 956.2,99.7 Q 957.5,99.7 958.9,99.7 Q 960.3,99.7 961.6,99.7 Q 963.0,99.7 964.4,99.7 Q 965.8,99.7 967.1,99.7 Q 968.5,99.7 969.9,99.7 Q 971.2,99.7 972.6,93.4 Q 974.0,93.4 975.3,92.6 Q 976.7,92.6 978.1,92.4 Q 979.5,92.4 980.8,85.5 Q 982.2,85.5 983.6,82.7 Q 984.9,82.7 986.3,81.2 Q 987.7,81.2 989.0,79.5 Q 990.4,79.5 991.8,77.5 Q 993.2,77.5 994.5,75.0 Q 995.9,75.0 997.3,71.9 Q 998.6,71.9 1000.0,67.9" fill="none" stroke="url(#waveGrad)" stroke-width="2" opacity="0.9"/>
<path d="M 0.0,100.0 Q 1.4,100.0 2.7,100.0 Q 4.1,100.0 5.5,100.0 Q 6.8,100.0 8.2,100.0 Q 9.6,100.0 11.0,100.0 Q 12.3,100.0 13.7,100.0 Q 15.1,100.0 16.4,100.0 Q 17.8,100.0 19.2,100.0 Q 20.5,100.0 21.9,100.0 Q 23.3,100.0 24.7,100.0 Q 26.0,100.0 27.4,100.0 Q 28.8,100.0 30.1,100.0 Q 31.5,100.0 32.9,100.0 Q 34.2,100.0 35.6,100.0 Q 37.0,100.0 38.4,100.0 Q 39.7,100.0 41.1,100.0 Q 42.5,100.0 43.8,100.0 Q 45.2,100.0 46.6,100.0 Q 47.9,100.0 49.3,100.0 Q 50.7,100.0 52.1,100.0 Q 53.4,100.0 54.8,100.0 Q 56.2,100.0 57.5,100.0 Q 58.9,100.0 60.3,100.0 Q 61.6,100.0 63.0,100.0 Q 64.4,100.0 65.8,100.0 Q 67.1,100.0 68.5,100.0 Q 69.9,100.0 71.2,100.0 Q 72.6,100.0 74.0,100.0 Q 75.3,100.0 76.7,100.0 Q 78.1,100.0 79.5,100.0 Q 80.8,100.0 82.2,100.0 Q 83.6,100.0 84.9,100.0 Q 86.3,100.0 87.7,100.0 Q 89.0,100.0 90.4,100.0 Q 91.8,100.0 93.2,100.0 Q 94.5,100.0 95.9,100.0 Q 97.3,100.0 98.6,100.0 Q 100.0,100.0 101.4,100.0 Q 102.7,100.0 104.1,100.0 Q 105.5,100.0 106.8,100.0 Q 108.2,100.0 109.6,100.0 Q 111.0,100.0 112.3,100.0 Q 113.7,100.0 115.1,100.0 Q 116.4,100.0 117.8,100.0 Q 119.2,100.0 120.5,100.0 Q 121.9,100.0 123.3,100.0 Q 124.7,100.0 126.0,100.0 Q 127.4,100.0 128.8,100.0 Q 130.1,100.0 131.5,100.0 Q 132.9,100.0 134.2,100.0 Q 135.6,100.0 137.0,100.0 Q 138.4,100.0 139.7,100.0 Q 141.1,100.0 142.5,100.0 Q 143.8,100.0 145.2,100.0 Q 146.6,100.0 147.9,100.0 Q 149.3,100.0 150.7,100.0 Q 152.1,100.0 153.4,100.0 Q 154.8,100.0 156.2,100.0 Q 157.5,100.0 158.9,100.0 Q 160.3,100.0 161.6,100.0 Q 163.0,100.0 164.4,100.0 Q 165.8,100.0 167.1,100.0 Q 168.5,100.0 169.9,100.0 Q 171.2,100.0 172.6,100.0 Q 174.0,100.0 175.3,100.0 Q 176.7,100.0 178.1,100.0 Q 179.5,100.0 180.8,100.0 Q 182.2,100.0 183.6,100.0 Q 184.9,100.0 186.3,100.0 Q 187.7,100.0 189.0,100.0 Q 190.4,100.0 191.8,100.0 Q 193.2,100.0 194.5,100.0 Q 195.9,100.0 197.3,100.0 Q 198.6,100.0 200.0,100.0 Q 201.4,100.0 202.7,100.0 Q 204.1,100.0 205.5,100.0 Q 206.8,100.0 208.2,100.0 Q 209.6,100.0 211.0,100.0 Q 212.3,100.0 213.7,100.0 Q 215.1,100.0 216.4,100.0 Q 217.8,100.0 219.2,100.0 Q 220.5,100.0 221.9,100.0 Q 223.3,100.0 224.7,100.0 Q 226.0,100.0 227.4,100.0 Q 228.8,100.0 230.1,100.0 Q 231.5,100.0 232.9,100.0 Q 234.2,100.0 235.6,100.0 Q 237.0,100.0 238.4,100.0 Q 239.7,100.0 241.1,100.0 Q 242.5,100.0 243.8,100.0 Q 245.2,100.0 246.6,100.0 Q 247.9,100.0 249.3,100.0 Q 250.7,100.0 252.1,100.0 Q 253.4,100.0 254.8,100.0 Q 256.2,100.0 257.5,100.0 Q 258.9,100.0 260.3,100.0 Q 261.6,100.0 263.0,100.0 Q 264.4,100.0 265.8,100.0 Q 267.1,100.0 268.5,100.0 Q 269.9,100.0 271.2,100.0 Q 272.6,100.0 274.0,100.0 Q 275.3,100.0 276.7,100.0 Q 278.1,100.0 279.5,100.0 Q 280.8,100.0 282.2,100.0 Q 283.6,100.0 284.9,100.0 Q 286.3,100.0 287.7,100.0 Q 289.0,100.0 290.4,100.0 Q 291.8,100.0 293.2,100.0 Q 294.5,100.0 295.9,100.0 Q 297.3,100.0 298.6,100.0 Q 300.0,100.0 301.4,100.0 Q 302.7,100.0 304.1,100.0 Q 305.5,100.0 306.8,100.0 Q 308.2,100.0 309.6,100.0 Q 311.0,100.0 312.3,100.0 Q 313.7,100.0 315.1,100.0 Q 316.4,100.0 317.8,100.0 Q 319.2,100.0 320.5,100.0 Q 321.9,100.0 323.3,100.0 Q 324.7,100.0 326.0,101.7 Q 327.4,101.7 328.8,101.7 Q 330.1,101.7 331.5,102.1 Q 332.9,102.1 334.2,102.1 Q 335.6,102.1 337.0,102.1 Q 338.4,102.1 339.7,102.1 Q 341.1,102.1 342.5,102.1 Q 343.8,102.1 345.2,102.1 Q 346.6,102.1 347.9,102.1 Q 349.3,102.1 350.7,102.1 Q 352.1,102.1 353.4,102.1 Q 354.8,102.1 356.2,102.1 Q 357.5,102.1 358.9,102.1 Q 360.3,102.1 361.6,100.3 Q 363.0,100.3 364.4,100.3 Q 365.8,100.3 367.1,100.0 Q 368.5,100.0 369.9,100.0 Q 371.2,100.0 372.6,100.0 Q 374.0,100.0 375.3,100.0 Q 376.7,100.0 378.1,100.0 Q 379.5,100.0 380.8,100.0 Q 382.2,100.0 383.6,100.0 Q 384.9,100.0 386.3,100.0 Q 387.7,100.0 389.0,100.0 Q 390.4,100.0 391.8,100.0 Q 393.2,100.0 394.5,100.0 Q 395.9,100.0 397.3,100.0 Q 398.6,100.0 400.0,100.0 Q 401.4,100.0 402.7,100.0 Q 404.1,100.0 405.5,100.0 Q 406.8,100.0 408.2,100.0 Q 409.6,100.0 411.0,100.0 Q 412.3,100.0 413.7,100.0 Q 415.1,100.0 416.4,100.0 Q 417.8,100.0 419.2,100.0 Q 420.5,100.0 421.9,100.0 Q 423.3,100.0 424.7,100.0 Q 426.0,100.0 427.4,100.0 Q 428.8,100.0 430.1,100.0 Q 431.5,100.0 432.9,100.0 Q 434.2,100.0 435.6,100.0 Q 437.0,100.0 438.4,100.0 Q 439.7,100.0 441.1,100.0 Q 442.5,100.0 443.8,100.0 Q 445.2,100.0 446.6,100.0 Q 447.9,100.0 449.3,102.1 Q 450.7,102.1 452.1,103.8 Q 453.4,103.8 454.8,103.8 Q 456.2,103.8 457.5,103.8 Q 458.9,103.8 460.3,103.8 Q 461.6,103.8 463.0,103.8 Q 464.4,103.8 465.8,103.8 Q 467.1,103.8 468.5,103.8 Q 469.9,103.8 471.2,103.8 Q 472.6,103.8 474.0,103.8 Q 475.3,103.8 476.7,103.8 Q 478.1,103.8 479.5,103.8 Q 480.8,103.8 482.2,103.8 Q 483.6,103.8 484.9,101.7 Q 486.3,101.7 487.7,100.0 Q 489.0,100.0 490.4,100.0 Q 491.8,100.0 493.2,100.0 Q 494.5,100.0 495.9,100.0 Q 497.3,100.0 498.6,100.0 Q 500.0,100.0 501.4,100.0 Q 502.7,100.0 504.1,100.0 Q 505.5,100.0 506.8,100.0 Q 508.2,100.0 509.6,100.0 Q 511.0,100.0 512.3,100.0 Q 513.7,100.0 515.1,100.0 Q 516.4,100.0 517.8,100.0 Q 519.2,100.0 520.5,100.0 Q 521.9,100.0 523.3,100.0 Q 524.7,100.0 526.0,100.0 Q 527.4,100.0 528.8,100.0 Q 530.1,100.0 531.5,100.0 Q 532.9,100.0 534.2,100.0 Q 535.6,100.0 537.0,100.0 Q 538.4,100.0 539.7,100.0 Q 541.1,100.0 542.5,100.0 Q 543.8,100.0 545.2,100.0 Q 546.6,100.0 547.9,100.0 Q 549.3,100.0 550.7,100.0 Q 552.1,100.0 553.4,100.0 Q 554.8,100.0 556.2,100.0 Q 557.5,100.0 558.9,100.0 Q 560.3,100.0 561.6,100.0 Q 563.0,100.0 564.4,100.0 Q 565.8,100.0 567.1,100.0 Q 568.5,100.0 569.9,100.2 Q 571.2,100.2 572.6,100.2 Q 574.0,100.2 575.3,100.2 Q 576.7,100.2 578.1,100.3 Q 579.5,100.3 580.8,100.3 Q 582.2,100.3 583.6,100.3 Q 584.9,100.3 586.3,100.3 Q 587.7,100.3 589.0,100.3 Q 590.4,100.3 591.8,100.3 Q 593.2,100.3 594.5,100.3 Q 595.9,100.3 597.3,100.3 Q 598.6,100.3 600.0,100.3 Q 601.4,100.3 602.7,100.3 Q 604.1,100.3 605.5,100.2 Q 606.8,100.2 608.2,100.2 Q 609.6,100.2 611.0,100.2 Q 612.3,100.2 613.7,100.0 Q 615.1,100.0 616.4,100.0 Q 617.8,100.0 619.2,100.0 Q 620.5,100.0 621.9,100.0 Q 623.3,100.0 624.7,100.0 Q 626.0,100.0 627.4,100.0 Q 628.8,100.0 630.1,100.0 Q 631.5,100.0 632.9,100.2 Q 634.2,100.2 635.6,100.2 Q 637.0,100.2 638.4,100.2 Q 639.7,100.2 641.1,100.2 Q 642.5,100.2 643.8,100.2 Q 645.2,100.2 646.6,100.2 Q 647.9,100.2 649.3,100.2 Q 650.7,100.2 652.1,100.7 Q 653.4,100.7 654.8,102.2 Q 656.2,102.2 657.5,102.4 Q 658.9,102.4 660.3,102.4 Q 661.6,102.4 663.0,102.4 Q 664.4,102.4 665.8,102.4 Q 667.1,102.4 668.5,102.2 Q 669.9,102.2 671.2,102.2 Q 672.6,102.2 674.0,102.6 Q 675.3,102.6 676.7,104.7 Q 678.1,104.7 679.5,104.7 Q 680.8,104.7 682.2,104.7 Q 683.6,104.7 684.9,104.7 Q 686.3,104.7 687.7,104.2 Q 689.0,104.2 690.4,102.6 Q 691.8,102.6 693.2,102.4 Q 694.5,102.4 695.9,102.4 Q 697.3,102.4 698.6,102.4 Q 700.0,102.4 701.4,102.4 Q 702.7,102.4 704.1,102.4 Q 705.5,102.4 706.8,102.4 Q 708.2,102.4 709.6,102.1 Q 711.0,102.1 712.3,100.0 Q 713.7,100.0 715.1,100.0 Q 716.4,100.0 717.8,100.0 Q 719.2,100.0 720.5,100.0 Q 721.9,100.0 723.3,100.5 Q 724.7,100.5 726.0,100.5 Q 727.4,100.5 728.8,100.5 Q 730.1,100.5 731.5,100.5 Q 732.9,100.5 734.2,100.5 Q 735.6,100.5 737.0,100.5 Q 738.4,100.5 739.7,100.5 Q 741.1,100.5 742.5,100.5 Q 743.8,100.5 745.2,100.5 Q 746.6,100.5 747.9,100.5 Q 749.3,100.5 750.7,100.5 Q 752.1,100.5 753.4,100.5 Q 754.8,100.5 756.2,100.5 Q 757.5,100.5 758.9,100.0 Q 760.3,100.0 761.6,100.0 Q 763.0,100.0 764.4,100.0 Q 765.8,100.0 767.1,100.0 Q 768.5,100.0 769.9,100.0 Q 771.2,100.0 772.6,100.0 Q 774.0,100.0 775.3,100.0 Q 776.7,100.0 778.1,100.0 Q 779.5,100.0 780.8,100.5 Q 782.2,100.5 783.6,100.5 Q 784.9,100.5 786.3,100.7 Q 787.7,100.7 789.0,100.7 Q 790.4,100.7 791.8,100.7 Q 793.2,100.7 794.5,100.7 Q 795.9,100.7 797.3,100.7 Q 798.6,100.7 800.0,100.7 Q 801.4,100.7 802.7,100.7 Q 804.1,100.7 805.5,100.7 Q 806.8,100.7 808.2,100.7 Q 809.6,100.7 811.0,100.7 Q 812.3,100.7 813.7,100.7 Q 815.1,100.7 816.4,100.2 Q 817.8,100.2 819.2,100.2 Q 820.5,100.2 821.9,100.0 Q 823.3,100.0 824.7,100.0 Q 826.0,100.0 827.4,100.0 Q 828.8,100.0 830.1,100.5 Q 831.5,100.5 832.9,100.9 Q 834.2,100.9 835.6,100.9 Q 837.0,100.9 838.4,100.9 Q 839.7,100.9 841.1,100.9 Q 842.5,100.9 843.8,100.9 Q 845.2,100.9 846.6,101.9 Q 847.9,101.9 849.3,104.5 Q 850.7,104.5 852.1,105.4 Q 853.4,105.4 854.8,107.8 Q 856.2,107.8 857.5,108.0 Q 858.9,108.0 860.3,108.0 Q 861.6,108.0 863.0,108.0 Q 864.4,108.0 865.8,107.4 Q 867.1,107.4 868.5,107.1 Q 869.9,107.1 871.2,107.1 Q 872.6,107.1 874.0,107.1 Q 875.3,107.1 876.7,110.7 Q 878.1,110.7 879.5,110.7 Q 880.8,110.7 882.2,109.7 Q 883.6,109.7 884.9,107.1 Q 886.3,107.1 887.7,106.2 Q 889.0,106.2 890.4,103.8 Q 891.8,103.8 893.2,103.6 Q 894.5,103.6 895.9,103.6 Q 897.3,103.6 898.6,103.6 Q 900.0,103.6 901.4,103.6 Q 902.7,103.6 904.1,103.6 Q 905.5,103.6 906.8,103.6 Q 908.2,103.6 909.6,103.6 Q 911.0,103.6 912.3,100.0 Q 913.7,100.0 915.1,100.0 Q 916.4,100.0 917.8,100.0 Q 919.2,100.0 920.5,100.0 Q 921.9,100.0 923.3,100.0 Q 924.7,100.0 926.0,100.0 Q 927.4,100.0 928.8,100.0 Q 930.1,100.0 931.5,100.0 Q 932.9,100.0 934.2,100.0 Q 935.6,100.0 937.0,100.0 Q 938.4,100.0 939.7,100.0 Q 941.1,100.0 942.5,100.0 Q 943.8,100.0 945.2,100.0 Q 946.6,100.0 947.9,100.3 Q 949.3,100.3 950.7,100.3 Q 952.1,100.3 953.4,100.3 Q 954.8,100.3 956.2,100.3 Q 957.5,100.3 958.9,100.3 Q 960.3,100.3 961.6,100.3 Q 963.0,100.3 964.4,100.3 Q 965.8,100.3 967.1,100.3 Q 968.5,100.3 969.9,100.3 Q 971.2,100.3 972.6,106.6 Q 974.0,106.6 975.3,107.4 Q 976.7,107.4 978.1,107.6 Q 979.5,107.6 980.8,114.5 Q 982.2,114.5 983.6,117.3 Q 984.9,117.3 986.3,118.8 Q 987.7,118.8 989.0,120.5 Q 990.4,120.5 991.8,122.5 Q 993.2,122.5 994.5,125.0 Q 995.9,125.0 997.3,128.1 Q 998.6,128.1 1000.0,132.1" fill="none" stroke="url(#waveGrad)" stroke-width="2" opacity="0.9"/>
<line x1="0" y1="100" x2="1000" y2="100" stroke="white" stroke-width="0.5" opacity="0.15"/>
</svg>